999
FreeCAD v1.0 39109 (Git)
  0
SECTION
  2
HEADER
  9
$ACADVER
  1
AC1014
  9
$ACADMAINTVER
 70
     9
  9
$DWGCODEPAGE
  3
ANSI_1252
  9
$TEXTSTYLE
  7
STANDARD
  9
$DIMSTYLE
  2
STANDARD
  9
$DIMTXSTY
  7
STANDARD
  9
$CMLSTYLE
  2
STANDARD
  9
$LUNITS
 70
2
  9
$INSUNITS
 70
4
  9
$PEXTMAX
 10
50
 20
50
 30
50
  9
$PEXTMIN
 10
0
 20
0
 30
0
  9
$HANDSEED
  5
FFFF
  0
ENDSEC
  0
SECTION
  2
CLASSES
  0
CLASS
  1
ACDBDICTIONARYWDFLT
  2
AcDbDictionaryWithDefault
  3
ObjectDBX Classes
 90
        0
280
     0
281
     0
  0
CLASS
  1
XRECORD
  2
AcDbXrecord
  3
ObjectDBX Classes
 90
        0
280
     0
281
     0
  0
CLASS
  1
LWPOLYLINE
  2
AcDbPolyline
  3
ObjectDBX Classes
 90
        0
280
     0
281
     1
  0
ENDSEC
  0
SECTION
  2
TABLES
  0
TABLE
  2
VPORT
  5
20
330
0
100
AcDbSymbolTable
 70
     1
  0
VPORT
  5
21
330
20
100
AcDbSymbolTableRecord
100
AcDbViewportTableRecord
  2
*ACTIVE
 70
     0
  0
ENDTAB
  0
TABLE
  2
LTYPE
  5
22
330
0
100
AcDbSymbolTable
 70
     1
  0
LTYPE
  5
23
330
21
100
AcDbSymbolTableRecord
100
AcDbLinetypeTableRecord
  2
BYBLOCK
 70
     0
  3

 72
    65
 73
     0
 40
0.0
  0
LTYPE
  5
24
330
21
100
AcDbSymbolTableRecord
100
AcDbLinetypeTableRecord
  2
BYLAYER
 70
     0
  3

 72
    65
 73
     0
 40
0.0
  0
LTYPE
  5
25
330
21
100
AcDbSymbolTableRecord
100
AcDbLinetypeTableRecord
  2
CONTINUOUS
 70
     0
  3
Solid line
 72
    65
 73
     0
 40
0.0
  0
ENDTAB
  0
TABLE
  2
LAYER
  5
B7C
330
0
100
AcDbSymbolTable
 70
3
  0
LAYER
  5
B7D
330
B7C
100
AcDbSymbolTableRecord
100
AcDbLayerTableRecord
  2
0
 70
   0
 62
   7
  6
CONTINUOUS
  0
LAYER
  5
B7E
330
B7C
100
AcDbSymbolTableRecord
100
AcDbLayerTableRecord
  2
none
 70
    0
 62
    7
  6
CONTINUOUS
  0
LAYER
  5
B7F
330
B7C
100
AcDbSymbolTableRecord
100
AcDbLayerTableRecord
  2
Part__Feature
 70
    0
 62
    7
  6
CONTINUOUS
  0
ENDTAB
  0
TABLE
  2
STYLE
  5
70
330
0
100
AcDbSymbolTable
 70
     2
  0
STYLE
  5
71
330
70
100
AcDbSymbolTableRecord
100
AcDbTextStyleTableRecord
  2
STANDARD
 70
     0
 40
0.0
 41
1.0
 50
0.0
 71
     0
 42
2.5
  3
arial.ttf
  4

  0
STYLE
  5
72
330
70
100
AcDbSymbolTableRecord
100
AcDbTextStyleTableRecord
  2
ANNOTATIVE
 70
     0
 40
0.0
 41
1.0
 50
0.0
 71
     0
 42
2.5
  3
arial.ttf
  4

  0
ENDTAB
  0
TABLE
  2
VIEW
  5
73
330
0
100
AcDbSymbolTable
 70
     0
  0
ENDTAB
  0
TABLE
  2
UCS
  5
74
330
0
100
AcDbSymbolTable
 70
     0
  0
ENDTAB
  0
TABLE
  2
APPID
  5
75
330
0
100
AcDbSymbolTable
 70
     2
  0
APPID
  5
76
330
75
100
AcDbSymbolTableRecord
100
AcDbRegAppTableRecord
  2
ACAD
 70
     0
  0
APPID
  5
77
330
75
100
AcDbSymbolTableRecord
100
AcDbRegAppTableRecord
  2
ACADANNOTATIVE
 70
     0
  0
ENDTAB
  0
TABLE
  2
DIMSTYLE
  5
78
330
0
100
AcDbSymbolTable
 70
     2
  0
DIMSTYLE
105
79
330
78
100
AcDbSymbolTableRecord
100
AcDbDimStyleTableRecord
  2
STANDARD
 70
     0
  3

  4

  5

  6

  7

 40
0.0
 41
2.5
 42
0.625
 43
3.75
 44
1.25
 45
0.0
 46
0.0
 47
0.0
 48
0.0
140
2.5
141
2.5
142
0.0
143
0.03937007874016
144
1.0
145
0.0
146
1.0
147
0.625
 71
     0
 72
     0
 73
     0
 74
     0
 75
     0
 76
     0
 77
     1
 78
     8
170
     0
171
     3
172
     1
173
     0
174
     0
175
     0
176
     0
177
     0
178
     0
270
     2
271
     2
272
     2
273
     2
274
     3
340
71
275
     0
280
     0
281
     0
282
     0
283
     0
284
     8
285
     0
286
     0
287
     3
288
     0
  0
ENDTAB
  0
TABLE
  2
BLOCK_RECORD
  5
A01
330
0
100
AcDbSymbolTable
  70
5
  0
BLOCK_RECORD
  5
A02
330
A01
100
AcDbSymbolTableRecord
100
AcDbBlockTableRecord
  2
*MODEL_SPACE
  0
BLOCK_RECORD
  5
A03
330
A01
100
AcDbSymbolTableRecord
100
AcDbBlockTableRecord
  2
*PAPER_SPACE
  0
ENDTAB
  0
ENDSEC
  0
SECTION
  2
BLOCKS
  0
BLOCK
  5
A04
330
A02
100
AcDbEntity
  8
0
100
AcDbBlockBegin
  2
*MODEL_SPACE
 70
   0
 10
0
 20
0
 30
0
  3
*MODEL_SPACE
  1
 
  0
ENDBLK
  5
A05
330
A02
100
AcDbEntity
  8
0
100
AcDbBlockEnd
  0
BLOCK
  5
A06
330
A03
100
AcDbEntity
 67
1
  8
0
100
AcDbBlockBegin
  2
*PAPER_SPACE
 70
   0
 10
0
 20
0
 30
0
  3
*PAPER_SPACE
  1
 
  0
ENDBLK
  5
A07
330
A03
100
AcDbEntity
 67
    1
  8
0
100
AcDbBlockEnd
  0
ENDSEC
  0
SECTION
  2
ENTITIES
  0
LINE
  5
A08
330
A02
100
AcDbEntity
  8
Part__Feature
100
AcDbLine
 10
371.550081336
 20
115.623354978
 30
-458.520703574
 11
371.550081336
 21
115.623354978
 31
-455.520703574
  0
CIRCLE
  5
A09
330
A02
100
AcDbEntity
  8
Part__Feature
100
AcDbCircle
 10
371.550081463
 20
118.323354978
 30
-455.520703574
 40
2.700000000
  0
LINE
  5
A0A
330
A02
100
AcDbEntity
  8
Part__Feature
100
AcDbLine
 10
371.550081336
 20
115.623354978
 30
-458.520703574
 11
371.550081336
 21
115.623354978
 31
-455.520703574
  0
CIRCLE
  5
A0B
330
A02
100
AcDbEntity
  8
Part__Feature
100
AcDbCircle
 10
371.550081463
 20
118.323354978
 30
-458.520703574
 40
2.700000000
  0
ARC
  5
A0C
330
A02
100
AcDbEntity
  8
Part__Feature
100
AcDbCircle
 10
118.550053826
 20
146.323641251
 30
-455.520703574
 40
2.000000000
100
AcDbArc
 50
90.000002689
 51
-179.999997311
  0
LINE
  5
A0D
330
A02
100
AcDbEntity
  8
Part__Feature
100
AcDbLine
 10
116.550053826
 20
146.323641157
 30
-455.520703574
 11
116.550056078
 21
98.323641158
 31
-455.520703574
  0
ARC
  5
A0E
330
A02
100
AcDbEntity
  8
Part__Feature
100
AcDbCircle
 10
114.550056078
 20
98.323641064
 30
-455.520703574
 40
2.000000000
100
AcDbArc
 50
-89.999997311
 51
0.000002689
  0
LINE
  5
A0F
330
A02
100
AcDbEntity
  8
Part__Feature
100
AcDbLine
 10
114.550056172
 20
96.323641064
 30
-455.520703574
 11
103.550092101
 21
96.323640548
 31
-455.520703574
  0
ARC
  5
A10
330
A02
100
AcDbEntity
  8
Part__Feature
100
AcDbCircle
 10
103.550092007
 20
98.323640548
 30
-455.520703574
 40
2.000000000
100
AcDbArc
 50
-179.999997311
 51
-89.999997311
  0
LINE
  5
A11
330
A02
100
AcDbEntity
  8
Part__Feature
100
AcDbLine
 10
101.550089755
 20
146.323640453
 30
-455.520703574
 11
101.550092007
 21
98.323640454
 31
-455.520703574
  0
ARC
  5
A12
330
A02
100
AcDbEntity
  8
Part__Feature
100
AcDbCircle
 10
99.550089755
 20
146.323640359
 30
-455.520703574
 40
2.000000000
100
AcDbArc
 50
0.000002689
 51
90.000002689
  0
LINE
  5
A13
330
A02
100
AcDbEntity
  8
Part__Feature
100
AcDbLine
 10
99.550089661
 20
148.323640359
 30
-455.520703574
 11
54.550042582
 21
148.323638248
 31
-455.520703574
  0
ARC
  5
A14
330
A02
100
AcDbEntity
  8
Part__Feature
100
AcDbCircle
 10
54.550042675
 20
146.323638248
 30
-455.520703574
 40
2.000000000
100
AcDbArc
 50
90.000002689
 51
-179.999997311
  0
LINE
  5
A15
330
A02
100
AcDbEntity
  8
Part__Feature
100
AcDbLine
 10
52.550042675
 20
146.323638154
 30
-455.520703574
 11
52.550043473
 21
129.323638154
 31
-455.520703574
  0
ARC
  5
A16
330
A02
100
AcDbEntity
  8
Part__Feature
100
AcDbCircle
 10
50.550043473
 20
129.323638060
 30
-455.520703574
 40
2.000000000
100
AcDbArc
 50
-89.999997311
 51
0.000002689
  0
LINE
  5
A17
330
A02
100
AcDbEntity
  8
Part__Feature
100
AcDbLine
 10
50.550043567
 20
127.323638060
 30
-455.520703574
 11
4.550043567
 21
127.323635902
 31
-455.520703574
  0
ARC
  5
A18
330
A02
100
AcDbEntity
  8
Part__Feature
100
AcDbCircle
 10
4.550043661
 20
125.323635902
 30
-455.520703574
 40
2.000000000
100
AcDbArc
 50
90.000002689
 51
-179.999997311
  0
LINE
  5
A19
330
A02
100
AcDbEntity
  8
Part__Feature
100
AcDbLine
 10
2.550043661
 20
125.323635808
 30
-455.520703574
 11
2.550047115
 21
51.716907178
 31
-455.520703574
  0
ARC
  5
A1A
330
A02
100
AcDbEntity
  8
Part__Feature
100
AcDbCircle
 10
4.550047115
 20
51.716907272
 30
-455.520703574
 40
2.000000000
100
AcDbArc
 50
-179.999997311
 51
-104.477509497
  0
ARC
  5
A1B
330
A02
100
AcDbEntity
  8
Part__Feature
100
AcDbCircle
 10
3.550047296
 20
47.843923879
 30
-455.520703574
 40
2.000000000
100
AcDbArc
 50
0.000002689
 51
75.522490503
  0
LINE
  5
A1C
330
A02
100
AcDbEntity
  8
Part__Feature
100
AcDbLine
 10
5.550047296
 20
47.843923973
 30
-455.520703574
 11
5.550049198
 21
7.323645691
 31
-455.520703574
  0
ARC
  5
A1D
330
A02
100
AcDbEntity
  8
Part__Feature
100
AcDbCircle
 10
7.550049198
 20
7.323645785
 30
-455.520703574
 40
2.000000000
100
AcDbArc
 50
-179.999997311
 51
-90.000000670
  0
LINE
  5
A1E
330
A02
100
AcDbEntity
  8
Part__Feature
100
AcDbLine
 10
7.550049174
 20
5.323645785
 30
-455.520703574
 11
54.721668579
 21
5.323645233
 31
-455.520703574
  0
ARC
  5
A1F
330
A02
100
AcDbEntity
  8
Part__Feature
100
AcDbCircle
 10
54.721668602
 20
7.323645233
 30
-455.520703574
 40
2.000000000
100
AcDbArc
 50
-90.000000670
 51
-44.999997311
  0
LINE
  5
A20
330
A02
100
AcDbEntity
  8
Part__Feature
100
AcDbLine
 10
56.135882231
 20
5.909431737
 30
-455.520703574
 11
60.028071893
 21
9.801621764
 31
-455.520703574
  0
ARC
  5
A21
330
A02
100
AcDbEntity
  8
Part__Feature
100
AcDbCircle
 10
58.613858264
 20
11.215835261
 30
-455.520703574
 40
2.000000000
100
AcDbArc
 50
-44.999997311
 51
-29.054601411
  0
LINE
  5
A22
330
A02
100
AcDbEntity
  8
Part__Feature
100
AcDbLine
 10
60.362172874
 20
10.244549474
 30
-455.520703574
 11
70.390166621
 21
28.294940413
 31
-455.520703574
  0
ARC
  5
A23
330
A02
100
AcDbEntity
  8
Part__Feature
100
AcDbCircle
 10
72.138481304
 20
27.323654585
 30
-455.520703574
 40
2.000000015
100
AcDbArc
 50
90.000002689
 51
150.945398589
  0
LINE
  5
A24
330
A02
100
AcDbEntity
  8
Part__Feature
100
AcDbLine
 10
72.138481211
 20
29.323654600
 30
-455.520703574
 11
80.550471676
 21
29.323654995
 31
-455.520703574
  0
ARC
  5
A25
330
A02
100
AcDbEntity
  8
Part__Feature
100
AcDbCircle
 10
80.550471770
 20
27.323654980
 30
-455.520703574
 40
2.000000015
100
AcDbArc
 50
48.590137615
 51
90.000002689
  0
ARC
  5
A26
330
A02
100
AcDbEntity
  8
Part__Feature
100
AcDbCircle
 10
83.196235671
 20
30.323643896
 30
-455.520703574
 40
2.000000000
100
AcDbArc
 50
-131.409862385
 51
-89.999995967
  0
LINE
  5
A27
330
A02
100
AcDbEntity
  8
Part__Feature
100
AcDbLine
 10
379.818023495
 20
28.323665788
 30
-455.520703574
 11
83.196235812
 21
28.323644910
 31
-455.520703574
  0
ARC
  5
A28
330
A02
100
AcDbEntity
  8
Part__Feature
100
AcDbCircle
 10
379.818023355
 20
30.323664774
 30
-455.520703574
 40
2.000000000
100
AcDbArc
 50
-89.999995967
 51
-48.590427215
  0
ARC
  5
A29
330
A02
100
AcDbEntity
  8
Part__Feature
100
AcDbCircle
 10
382.463772083
 20
27.323662496
 30
-455.520703574
 40
2.000000000
100
AcDbArc
 50
90.000002689
 51
131.409572785
  0
LINE
  5
A2A
330
A02
100
AcDbEntity
  8
Part__Feature
100
AcDbLine
 10
382.463771989
 20
29.323662496
 30
-455.520703574
 11
390.853557150
 21
29.323662890
 31
-455.520703574
  0
ARC
  5
A2B
330
A02
100
AcDbEntity
  8
Part__Feature
100
AcDbCircle
 10
390.853557244
 20
27.323662890
 30
-455.520703574
 40
2.000000000
100
AcDbArc
 50
16.347995961
 51
90.000002689
  0
LINE
  5
A2C
330
A02
100
AcDbEntity
  8
Part__Feature
100
AcDbLine
 10
392.772696932
 20
27.886604144
 30
-455.520703574
 11
396.821671688
 21
14.083124495
 31
-455.520703574
  0
ARC
  5
A2D
330
A02
100
AcDbEntity
  8
Part__Feature
100
AcDbCircle
 10
398.740811377
 20
14.646065749
 30
-455.520703574
 40
2.000000000
100
AcDbArc
 50
-163.652004039
 51
-121.487635969
  0
LINE
  5
A2E
330
A02
100
AcDbEntity
  8
Part__Feature
100
AcDbLine
 10
397.696182259
 20
12.940559957
 30
-455.520703574
 11
422.569639418
 21
-2.294532014
 31
-455.520703574
  0
ARC
  5
A2F
330
A02
100
AcDbEntity
  8
Part__Feature
100
AcDbCircle
 10
423.614268536
 20
-0.589026222
 30
-455.520703574
 40
2.000000000
100
AcDbArc
 50
-121.487635969
 51
-99.190637598
  0
LINE
  5
A30
330
A02
100
AcDbEntity
  8
Part__Feature
100
AcDbLine
 10
423.294828770
 20
-2.563350976
 30
-455.520703574
 11
442.140395849
 21
-5.612506652
 31
-455.520703574
  0
ARC
  5
A31
330
A02
100
AcDbEntity
  8
Part__Feature
100
AcDbCircle
 10
442.459835615
 20
-3.638181898
 30
-455.520703574
 40
2.000000000
100
AcDbArc
 50
-99.190637599
 51
-60.775689407
  0
LINE
  5
A32
330
A02
100
AcDbEntity
  8
Part__Feature
100
AcDbLine
 10
443.436295607
 20
-5.383611897
 30
-455.520703574
 11
450.219616444
 21
-1.588763974
 31
-455.520703574
  0
ARC
  5
A33
330
A02
100
AcDbEntity
  8
Part__Feature
100
AcDbCircle
 10
451.196076436
 20
-3.334193974
 30
-455.520703574
 40
2.000000000
100
AcDbArc
 50
58.448617660
 51
119.224310593
  0
LINE
  5
A34
330
A02
100
AcDbEntity
  8
Part__Feature
100
AcDbLine
 10
452.242602425
 20
-1.629851475
 30
-455.520703574
 11
454.503534764
 21
-3.018143120
 31
-455.520703574
  0
ARC
  5
A35
330
A02
100
AcDbEntity
  8
Part__Feature
100
AcDbCircle
 10
455.550060753
 20
-1.313800621
 30
-455.520703574
 40
2.000000000
100
AcDbArc
 50
-121.551382340
 51
0.000002689
  0
LINE
  5
A36
330
A02
100
AcDbEntity
  8
Part__Feature
100
AcDbLine
 10
457.550058437
 20
48.034470163
 30
-455.520703574
 11
457.550060753
 21
-1.313800528
 31
-455.520703574
  0
ARC
  5
A37
330
A02
100
AcDbEntity
  8
Part__Feature
100
AcDbCircle
 10
459.550058437
 20
48.034470256
 30
-455.520703574
 40
2.000000000
100
AcDbArc
 50
104.477514867
 51
-179.999997311
  0
ARC
  5
A38
330
A02
100
AcDbEntity
  8
Part__Feature
100
AcDbCircle
 10
458.550058256
 20
51.907453556
 30
-455.520703574
 40
2.000000000
100
AcDbArc
 50
-75.522485133
 51
0.000002689
  0
LINE
  5
A39
330
A02
100
AcDbEntity
  8
Part__Feature
100
AcDbLine
 10
460.550058256
 20
51.907453650
 30
-455.520703574
 11
460.550053826
 21
146.323657299
 31
-455.520703574
  0
ARC
  5
A3A
330
A02
100
AcDbEntity
  8
Part__Feature
100
AcDbCircle
 10
458.550053826
 20
146.323657205
 30
-455.520703574
 40
2.000000000
100
AcDbArc
 50
0.000002689
 51
90.000002689
  0
LINE
  5
A3B
330
A02
100
AcDbEntity
  8
Part__Feature
100
AcDbLine
 10
458.550053732
 20
148.323657205
 30
-455.520703574
 11
235.550053732
 21
148.323646741
 31
-455.520703574
  0
ARC
  5
A3C
330
A02
100
AcDbEntity
  8
Part__Feature
100
AcDbCircle
 10
235.550053826
 20
146.323646741
 30
-455.520703574
 40
2.000000000
100
AcDbArc
 50
90.000002689
 51
-179.999997311
  0
LINE
  5
A3D
330
A02
100
AcDbEntity
  8
Part__Feature
100
AcDbLine
 10
233.550053826
 20
146.323646647
 30
-455.520703574
 11
233.550055843
 21
103.323646648
 31
-455.520703574
  0
ARC
  5
A3E
330
A02
100
AcDbEntity
  8
Part__Feature
100
AcDbCircle
 10
231.550055843
 20
103.323646554
 30
-455.520703574
 40
2.000000000
100
AcDbArc
 50
-89.999997311
 51
0.000002689
  0
LINE
  5
A3F
330
A02
100
AcDbEntity
  8
Part__Feature
100
AcDbLine
 10
231.550055937
 20
101.323646554
 30
-455.520703574
 11
225.550055937
 21
101.323646272
 31
-455.520703574
  0
ARC
  5
A40
330
A02
100
AcDbEntity
  8
Part__Feature
100
AcDbCircle
 10
225.550055843
 20
103.323646272
 30
-455.520703574
 40
2.000000000
100
AcDbArc
 50
-179.999997311
 51
-89.999997311
  0
LINE
  5
A41
330
A02
100
AcDbEntity
  8
Part__Feature
100
AcDbLine
 10
223.550055843
 20
103.323646178
 30
-455.520703574
 11
223.550055749
 21
105.323646178
 31
-455.520703574
  0
ARC
  5
A42
330
A02
100
AcDbEntity
  8
Part__Feature
100
AcDbCircle
 10
221.550055749
 20
105.323646085
 30
-455.520703574
 40
2.000000000
100
AcDbArc
 50
0.000002689
 51
90.000002689
  0
LINE
  5
A43
330
A02
100
AcDbEntity
  8
Part__Feature
100
AcDbLine
 10
221.550055656
 20
107.323646085
 30
-455.520703574
 11
137.550055656
 21
107.323642143
 31
-455.520703574
  0
ARC
  5
A44
330
A02
100
AcDbEntity
  8
Part__Feature
100
AcDbCircle
 10
137.550055562
 20
109.323642143
 30
-455.520703574
 40
2.000000000
100
AcDbArc
 50
-179.999997311
 51
-89.999997311
  0
LINE
  5
A45
330
A02
100
AcDbEntity
  8
Part__Feature
100
AcDbLine
 10
135.550055562
 20
109.323642049
 30
-455.520703574
 11
135.550053826
 21
146.323642049
 31
-455.520703574
  0
ARC
  5
A46
330
A02
100
AcDbEntity
  8
Part__Feature
100
AcDbCircle
 10
133.550053826
 20
146.323641955
 30
-455.520703574
 40
2.000000000
100
AcDbArc
 50
0.000002689
 51
90.000002689
  0
LINE
  5
A47
330
A02
100
AcDbEntity
  8
Part__Feature
100
AcDbLine
 10
133.550053732
 20
148.323641955
 30
-455.520703574
 11
118.550053732
 21
148.323641251
 31
-455.520703574
  0
CIRCLE
  5
A48
330
A02
100
AcDbEntity
  8
Part__Feature
100
AcDbCircle
 10
371.550081463
 20
118.323354978
 30
-455.520703574
 40
2.700000000
  0
CIRCLE
  5
A49
330
A02
100
AcDbEntity
  8
Part__Feature
100
AcDbCircle
 10
91.550079117
 20
68.323368116
 30
-455.520703574
 40
2.700000000
  0
LINE
  5
A4A
330
A02
100
AcDbEntity
  8
Part__Feature
100
AcDbLine
 10
91.550078990
 20
65.623368116
 30
-455.520703574
 11
91.550078990
 21
65.623368116
 31
-458.520703574
  0
CIRCLE
  5
A4B
330
A02
100
AcDbEntity
  8
Part__Feature
100
AcDbCircle
 10
91.550079117
 20
68.323368116
 30
-458.520703574
 40
2.700000000
  0
LINE
  5
A4C
330
A02
100
AcDbEntity
  8
Part__Feature
100
AcDbLine
 10
91.550078990
 20
65.623368116
 30
-455.520703574
 11
91.550078990
 21
65.623368116
 31
-458.520703574
  0
CIRCLE
  5
A4D
330
A02
100
AcDbEntity
  8
Part__Feature
100
AcDbCircle
 10
91.550079117
 20
68.323368116
 30
-455.520703574
 40
2.700000000
  0
ARC
  5
A4E
330
A02
100
AcDbEntity
  8
Part__Feature
100
AcDbCircle
 10
118.550053826
 20
146.323641251
 30
-455.520703574
 40
2.000000000
100
AcDbArc
 50
90.000002689
 51
-179.999997311
  0
LINE
  5
A4F
330
A02
100
AcDbEntity
  8
Part__Feature
100
AcDbLine
 10
118.550053732
 20
148.323641251
 30
-455.520703574
 11
118.550053732
 21
148.323641251
 31
-458.520703574
  0
ARC
  5
A50
330
A02
100
AcDbEntity
  8
Part__Feature
100
AcDbCircle
 10
118.550053826
 20
146.323641251
 30
-458.520703574
 40
2.000000000
100
AcDbArc
 50
90.000002689
 51
-179.999997311
  0
LINE
  5
A51
330
A02
100
AcDbEntity
  8
Part__Feature
100
AcDbLine
 10
116.550053826
 20
146.323641157
 30
-458.520703574
 11
116.550053826
 21
146.323641157
 31
-455.520703574
  0
LINE
  5
A52
330
A02
100
AcDbEntity
  8
Part__Feature
100
AcDbLine
 10
116.550053826
 20
146.323641157
 30
-458.520703574
 11
116.550053826
 21
146.323641157
 31
-455.520703574
  0
LINE
  5
A53
330
A02
100
AcDbEntity
  8
Part__Feature
100
AcDbLine
 10
116.550056078
 20
98.323641158
 30
-458.520703574
 11
116.550053826
 21
146.323641157
 31
-458.520703574
  0
LINE
  5
A54
330
A02
100
AcDbEntity
  8
Part__Feature
100
AcDbLine
 10
116.550056078
 20
98.323641158
 30
-455.520703574
 11
116.550056078
 21
98.323641158
 31
-458.520703574
  0
LINE
  5
A55
330
A02
100
AcDbEntity
  8
Part__Feature
100
AcDbLine
 10
116.550053826
 20
146.323641157
 30
-455.520703574
 11
116.550056078
 21
98.323641158
 31
-455.520703574
  0
LINE
  5
A56
330
A02
100
AcDbEntity
  8
Part__Feature
100
AcDbLine
 10
114.550056172
 20
96.323641064
 30
-458.520703574
 11
114.550056172
 21
96.323641064
 31
-455.520703574
  0
ARC
  5
A57
330
A02
100
AcDbEntity
  8
Part__Feature
100
AcDbCircle
 10
114.550056078
 20
98.323641064
 30
-458.520703574
 40
2.000000000
100
AcDbArc
 50
-89.999997311
 51
0.000002689
  0
LINE
  5
A58
330
A02
100
AcDbEntity
  8
Part__Feature
100
AcDbLine
 10
116.550056078
 20
98.323641158
 30
-455.520703574
 11
116.550056078
 21
98.323641158
 31
-458.520703574
  0
ARC
  5
A59
330
A02
100
AcDbEntity
  8
Part__Feature
100
AcDbCircle
 10
114.550056078
 20
98.323641064
 30
-455.520703574
 40
2.000000000
100
AcDbArc
 50
-89.999997311
 51
0.000002689
  0
LINE
  5
A5A
330
A02
100
AcDbEntity
  8
Part__Feature
100
AcDbLine
 10
103.550092101
 20
96.323640548
 30
-455.520703574
 11
103.550092101
 21
96.323640548
 31
-458.520703574
  0
ARC
  5
A5B
330
A02
100
AcDbEntity
  8
Part__Feature
100
AcDbCircle
 10
103.550092007
 20
98.323640548
 30
-455.520703574
 40
2.000000000
100
AcDbArc
 50
-179.999997311
 51
-89.999997311
  0
LINE
  5
A5C
330
A02
100
AcDbEntity
  8
Part__Feature
100
AcDbLine
 10
101.550092007
 20
98.323640454
 30
-458.520703574
 11
101.550092007
 21
98.323640454
 31
-455.520703574
  0
ARC
  5
A5D
330
A02
100
AcDbEntity
  8
Part__Feature
100
AcDbCircle
 10
103.550092007
 20
98.323640548
 30
-458.520703574
 40
2.000000000
100
AcDbArc
 50
-179.999997311
 51
-89.999997311
  0
LINE
  5
A5E
330
A02
100
AcDbEntity
  8
Part__Feature
100
AcDbLine
 10
101.550092007
 20
98.323640454
 30
-458.520703574
 11
101.550092007
 21
98.323640454
 31
-455.520703574
  0
LINE
  5
A5F
330
A02
100
AcDbEntity
  8
Part__Feature
100
AcDbLine
 10
101.550092007
 20
98.323640454
 30
-458.520703574
 11
101.550089755
 21
146.323640453
 31
-458.520703574
  0
LINE
  5
A60
330
A02
100
AcDbEntity
  8
Part__Feature
100
AcDbLine
 10
101.550089755
 20
146.323640453
 30
-455.520703574
 11
101.550089755
 21
146.323640453
 31
-458.520703574
  0
LINE
  5
A61
330
A02
100
AcDbEntity
  8
Part__Feature
100
AcDbLine
 10
101.550089755
 20
146.323640453
 30
-455.520703574
 11
101.550092007
 21
98.323640454
 31
-455.520703574
  0
ARC
  5
A62
330
A02
100
AcDbEntity
  8
Part__Feature
100
AcDbCircle
 10
99.550089755
 20
146.323640359
 30
-455.520703574
 40
2.000000000
100
AcDbArc
 50
0.000002689
 51
90.000002689
  0
LINE
  5
A63
330
A02
100
AcDbEntity
  8
Part__Feature
100
AcDbLine
 10
101.550089755
 20
146.323640453
 30
-455.520703574
 11
101.550089755
 21
146.323640453
 31
-458.520703574
  0
ARC
  5
A64
330
A02
100
AcDbEntity
  8
Part__Feature
100
AcDbCircle
 10
99.550089755
 20
146.323640359
 30
-458.520703574
 40
2.000000000
100
AcDbArc
 50
0.000002689
 51
90.000002689
  0
LINE
  5
A65
330
A02
100
AcDbEntity
  8
Part__Feature
100
AcDbLine
 10
99.550089661
 20
148.323640359
 30
-458.520703574
 11
99.550089661
 21
148.323640359
 31
-455.520703574
  0
ARC
  5
A66
330
A02
100
AcDbEntity
  8
Part__Feature
100
AcDbCircle
 10
118.550053826
 20
146.323641251
 30
-458.520703574
 40
2.000000000
100
AcDbArc
 50
90.000002689
 51
-179.999997311
  0
LINE
  5
A67
330
A02
100
AcDbEntity
  8
Part__Feature
100
AcDbLine
 10
133.550053732
 20
148.323641955
 30
-458.520703574
 11
118.550053732
 21
148.323641251
 31
-458.520703574
  0
ARC
  5
A68
330
A02
100
AcDbEntity
  8
Part__Feature
100
AcDbCircle
 10
133.550053826
 20
146.323641955
 30
-458.520703574
 40
2.000000000
100
AcDbArc
 50
0.000002689
 51
90.000002689
  0
LINE
  5
A69
330
A02
100
AcDbEntity
  8
Part__Feature
100
AcDbLine
 10
135.550055562
 20
109.323642049
 30
-458.520703574
 11
135.550053826
 21
146.323642049
 31
-458.520703574
  0
ARC
  5
A6A
330
A02
100
AcDbEntity
  8
Part__Feature
100
AcDbCircle
 10
137.550055562
 20
109.323642143
 30
-458.520703574
 40
2.000000000
100
AcDbArc
 50
-179.999997311
 51
-89.999997311
  0
LINE
  5
A6B
330
A02
100
AcDbEntity
  8
Part__Feature
100
AcDbLine
 10
137.550055656
 20
107.323642143
 30
-458.520703574
 11
221.550055656
 21
107.323646085
 31
-458.520703574
  0
ARC
  5
A6C
330
A02
100
AcDbEntity
  8
Part__Feature
100
AcDbCircle
 10
221.550055749
 20
105.323646085
 30
-458.520703574
 40
2.000000000
100
AcDbArc
 50
0.000002689
 51
90.000002689
  0
LINE
  5
A6D
330
A02
100
AcDbEntity
  8
Part__Feature
100
AcDbLine
 10
223.550055749
 20
105.323646178
 30
-458.520703574
 11
223.550055843
 21
103.323646178
 31
-458.520703574
  0
ARC
  5
A6E
330
A02
100
AcDbEntity
  8
Part__Feature
100
AcDbCircle
 10
225.550055843
 20
103.323646272
 30
-458.520703574
 40
2.000000000
100
AcDbArc
 50
-179.999997311
 51
-89.999997311
  0
LINE
  5
A6F
330
A02
100
AcDbEntity
  8
Part__Feature
100
AcDbLine
 10
231.550055937
 20
101.323646554
 30
-458.520703574
 11
225.550055937
 21
101.323646272
 31
-458.520703574
  0
ARC
  5
A70
330
A02
100
AcDbEntity
  8
Part__Feature
100
AcDbCircle
 10
231.550055843
 20
103.323646554
 30
-458.520703574
 40
2.000000000
100
AcDbArc
 50
-89.999997311
 51
0.000002689
  0
LINE
  5
A71
330
A02
100
AcDbEntity
  8
Part__Feature
100
AcDbLine
 10
233.550053826
 20
146.323646647
 30
-458.520703574
 11
233.550055843
 21
103.323646648
 31
-458.520703574
  0
ARC
  5
A72
330
A02
100
AcDbEntity
  8
Part__Feature
100
AcDbCircle
 10
235.550053826
 20
146.323646741
 30
-458.520703574
 40
2.000000000
100
AcDbArc
 50
90.000002689
 51
-179.999997311
  0
LINE
  5
A73
330
A02
100
AcDbEntity
  8
Part__Feature
100
AcDbLine
 10
235.550053732
 20
148.323646741
 30
-458.520703574
 11
458.550053732
 21
148.323657205
 31
-458.520703574
  0
ARC
  5
A74
330
A02
100
AcDbEntity
  8
Part__Feature
100
AcDbCircle
 10
458.550053826
 20
146.323657205
 30
-458.520703574
 40
2.000000000
100
AcDbArc
 50
0.000002689
 51
90.000002689
  0
LINE
  5
A75
330
A02
100
AcDbEntity
  8
Part__Feature
100
AcDbLine
 10
460.550053826
 20
146.323657299
 30
-458.520703574
 11
460.550058256
 21
51.907453650
 31
-458.520703574
  0
ARC
  5
A76
330
A02
100
AcDbEntity
  8
Part__Feature
100
AcDbCircle
 10
458.550058256
 20
51.907453556
 30
-458.520703574
 40
2.000000000
100
AcDbArc
 50
-75.522485133
 51
0.000002689
  0
ARC
  5
A77
330
A02
100
AcDbEntity
  8
Part__Feature
100
AcDbCircle
 10
459.550058437
 20
48.034470256
 30
-458.520703574
 40
2.000000000
100
AcDbArc
 50
104.477514867
 51
-179.999997311
  0
LINE
  5
A78
330
A02
100
AcDbEntity
  8
Part__Feature
100
AcDbLine
 10
457.550058437
 20
48.034470163
 30
-458.520695650
 11
457.550060753
 21
-1.313800528
 31
-458.520695650
  0
ARC
  5
A79
330
A02
100
AcDbEntity
  8
Part__Feature
100
AcDbCircle
 10
455.550060753
 20
-1.313800621
 30
-458.520703574
 40
2.000000000
100
AcDbArc
 50
-121.551382340
 51
0.000002689
  0
LINE
  5
A7A
330
A02
100
AcDbEntity
  8
Part__Feature
100
AcDbLine
 10
454.503534764
 20
-3.018143120
 30
-458.520703574
 11
452.242602425
 21
-1.629851475
 31
-458.520703574
  0
ARC
  5
A7B
330
A02
100
AcDbEntity
  8
Part__Feature
100
AcDbCircle
 10
451.196076436
 20
-3.334193974
 30
-458.520703574
 40
2.000000000
100
AcDbArc
 50
58.448617660
 51
119.224310593
  0
LINE
  5
A7C
330
A02
100
AcDbEntity
  8
Part__Feature
100
AcDbLine
 10
450.219616444
 20
-1.588763974
 30
-458.520703574
 11
443.436295607
 21
-5.383611897
 31
-458.520703574
  0
ARC
  5
A7D
330
A02
100
AcDbEntity
  8
Part__Feature
100
AcDbCircle
 10
442.459835615
 20
-3.638181898
 30
-458.520703574
 40
2.000000000
100
AcDbArc
 50
-99.190637599
 51
-60.775689407
  0
LINE
  5
A7E
330
A02
100
AcDbEntity
  8
Part__Feature
100
AcDbLine
 10
442.140395849
 20
-5.612506652
 30
-458.520703574
 11
423.294828770
 21
-2.563350976
 31
-458.520703574
  0
ARC
  5
A7F
330
A02
100
AcDbEntity
  8
Part__Feature
100
AcDbCircle
 10
423.614268536
 20
-0.589026222
 30
-458.520703574
 40
2.000000000
100
AcDbArc
 50
-121.487635969
 51
-99.190637598
  0
LINE
  5
A80
330
A02
100
AcDbEntity
  8
Part__Feature
100
AcDbLine
 10
422.569639418
 20
-2.294532014
 30
-458.520703574
 11
397.696182259
 21
12.940559957
 31
-458.520703574
  0
ARC
  5
A81
330
A02
100
AcDbEntity
  8
Part__Feature
100
AcDbCircle
 10
398.740811377
 20
14.646065749
 30
-458.520703574
 40
2.000000000
100
AcDbArc
 50
-163.652004039
 51
-121.487635969
  0
LINE
  5
A82
330
A02
100
AcDbEntity
  8
Part__Feature
100
AcDbLine
 10
396.821671688
 20
14.083124495
 30
-458.520703574
 11
392.772696932
 21
27.886604144
 31
-458.520703574
  0
ARC
  5
A83
330
A02
100
AcDbEntity
  8
Part__Feature
100
AcDbCircle
 10
390.853557244
 20
27.323662890
 30
-458.520703574
 40
2.000000000
100
AcDbArc
 50
16.347995961
 51
90.000002689
  0
LINE
  5
A84
330
A02
100
AcDbEntity
  8
Part__Feature
100
AcDbLine
 10
390.853557150
 20
29.323662890
 30
-458.520703574
 11
382.463771989
 21
29.323662496
 31
-458.520703574
  0
ARC
  5
A85
330
A02
100
AcDbEntity
  8
Part__Feature
100
AcDbCircle
 10
382.463772083
 20
27.323662496
 30
-458.520703574
 40
2.000000000
100
AcDbArc
 50
90.000002689
 51
131.409572785
  0
ARC
  5
A86
330
A02
100
AcDbEntity
  8
Part__Feature
100
AcDbCircle
 10
379.818023355
 20
30.323664774
 30
-458.520703574
 40
2.000000000
100
AcDbArc
 50
-89.999995967
 51
-48.590427215
  0
LINE
  5
A87
330
A02
100
AcDbEntity
  8
Part__Feature
100
AcDbLine
 10
83.196235812
 20
28.323644910
 30
-458.520703574
 11
379.818023495
 21
28.323665788
 31
-458.520703574
  0
ARC
  5
A88
330
A02
100
AcDbEntity
  8
Part__Feature
100
AcDbCircle
 10
83.196235671
 20
30.323643896
 30
-458.520703574
 40
2.000000000
100
AcDbArc
 50
-131.409862385
 51
-89.999995967
  0
ARC
  5
A89
330
A02
100
AcDbEntity
  8
Part__Feature
100
AcDbCircle
 10
80.550471770
 20
27.323654980
 30
-458.520703574
 40
2.000000015
100
AcDbArc
 50
48.590137615
 51
90.000002689
  0
LINE
  5
A8A
330
A02
100
AcDbEntity
  8
Part__Feature
100
AcDbLine
 10
80.550471676
 20
29.323654995
 30
-458.520703574
 11
72.138481211
 21
29.323654600
 31
-458.520703574
  0
ARC
  5
A8B
330
A02
100
AcDbEntity
  8
Part__Feature
100
AcDbCircle
 10
72.138481304
 20
27.323654585
 30
-458.520703574
 40
2.000000015
100
AcDbArc
 50
90.000002689
 51
150.945398589
  0
LINE
  5
A8C
330
A02
100
AcDbEntity
  8
Part__Feature
100
AcDbLine
 10
70.390166621
 20
28.294940413
 30
-458.520703574
 11
60.362172874
 21
10.244549474
 31
-458.520703574
  0
ARC
  5
A8D
330
A02
100
AcDbEntity
  8
Part__Feature
100
AcDbCircle
 10
58.613858264
 20
11.215835261
 30
-458.520703574
 40
2.000000000
100
AcDbArc
 50
-44.999997311
 51
-29.054601411
  0
LINE
  5
A8E
330
A02
100
AcDbEntity
  8
Part__Feature
100
AcDbLine
 10
60.028071893
 20
9.801621764
 30
-458.520703574
 11
56.135882231
 21
5.909431737
 31
-458.520703574
  0
ARC
  5
A8F
330
A02
100
AcDbEntity
  8
Part__Feature
100
AcDbCircle
 10
54.721668602
 20
7.323645233
 30
-458.520703574
 40
2.000000000
100
AcDbArc
 50
-90.000000670
 51
-44.999997311
  0
LINE
  5
A90
330
A02
100
AcDbEntity
  8
Part__Feature
100
AcDbLine
 10
54.721668579
 20
5.323645233
 30
-458.520703574
 11
7.550049174
 21
5.323645785
 31
-458.520703574
  0
ARC
  5
A91
330
A02
100
AcDbEntity
  8
Part__Feature
100
AcDbCircle
 10
7.550049198
 20
7.323645785
 30
-458.520703574
 40
2.000000000
100
AcDbArc
 50
-179.999997311
 51
-90.000000670
  0
LINE
  5
A92
330
A02
100
AcDbEntity
  8
Part__Feature
100
AcDbLine
 10
5.550047297
 20
47.843923973
 30
-458.520703574
 11
5.550049198
 21
7.323645691
 31
-458.520703574
  0
ARC
  5
A93
330
A02
100
AcDbEntity
  8
Part__Feature
100
AcDbCircle
 10
3.550047297
 20
47.843923879
 30
-458.520703574
 40
2.000000000
100
AcDbArc
 50
0.000002689
 51
75.522490503
  0
ARC
  5
A94
330
A02
100
AcDbEntity
  8
Part__Feature
100
AcDbCircle
 10
4.550047115
 20
51.716907272
 30
-458.520703574
 40
2.000000000
100
AcDbArc
 50
-179.999997311
 51
-104.477509497
  0
LINE
  5
A95
330
A02
100
AcDbEntity
  8
Part__Feature
100
AcDbLine
 10
2.550043661
 20
125.323635808
 30
-458.520703574
 11
2.550047115
 21
51.716907178
 31
-458.520703574
  0
ARC
  5
A96
330
A02
100
AcDbEntity
  8
Part__Feature
100
AcDbCircle
 10
4.550043661
 20
125.323635902
 30
-458.520703574
 40
2.000000000
100
AcDbArc
 50
90.000002689
 51
-179.999997311
  0
LINE
  5
A97
330
A02
100
AcDbEntity
  8
Part__Feature
100
AcDbLine
 10
4.550043567
 20
127.323635902
 30
-458.520703574
 11
50.550043567
 21
127.323638060
 31
-458.520703574
  0
ARC
  5
A98
330
A02
100
AcDbEntity
  8
Part__Feature
100
AcDbCircle
 10
50.550043473
 20
129.323638060
 30
-458.520703574
 40
2.000000000
100
AcDbArc
 50
-89.999997311
 51
0.000002689
  0
LINE
  5
A99
330
A02
100
AcDbEntity
  8
Part__Feature
100
AcDbLine
 10
52.550043473
 20
129.323638154
 30
-458.520703574
 11
52.550042675
 21
146.323638154
 31
-458.520703574
  0
ARC
  5
A9A
330
A02
100
AcDbEntity
  8
Part__Feature
100
AcDbCircle
 10
54.550042675
 20
146.323638248
 30
-458.520703574
 40
2.000000000
100
AcDbArc
 50
90.000002689
 51
-179.999997311
  0
LINE
  5
A9B
330
A02
100
AcDbEntity
  8
Part__Feature
100
AcDbLine
 10
54.550042582
 20
148.323638248
 30
-458.520703574
 11
99.550089661
 21
148.323640359
 31
-458.520703574
  0
ARC
  5
A9C
330
A02
100
AcDbEntity
  8
Part__Feature
100
AcDbCircle
 10
99.550089755
 20
146.323640359
 30
-458.520703574
 40
2.000000000
100
AcDbArc
 50
0.000002689
 51
90.000002689
  0
LINE
  5
A9D
330
A02
100
AcDbEntity
  8
Part__Feature
100
AcDbLine
 10
101.550092007
 20
98.323640454
 30
-458.520703574
 11
101.550089755
 21
146.323640453
 31
-458.520703574
  0
ARC
  5
A9E
330
A02
100
AcDbEntity
  8
Part__Feature
100
AcDbCircle
 10
103.550092007
 20
98.323640548
 30
-458.520703574
 40
2.000000000
100
AcDbArc
 50
-179.999997311
 51
-89.999997311
  0
LINE
  5
A9F
330
A02
100
AcDbEntity
  8
Part__Feature
100
AcDbLine
 10
114.550056172
 20
96.323641064
 30
-458.520703574
 11
103.550092101
 21
96.323640548
 31
-458.520703574
  0
ARC
  5
AA0
330
A02
100
AcDbEntity
  8
Part__Feature
100
AcDbCircle
 10
114.550056078
 20
98.323641064
 30
-458.520703574
 40
2.000000000
100
AcDbArc
 50
-89.999997311
 51
0.000002689
  0
LINE
  5
AA1
330
A02
100
AcDbEntity
  8
Part__Feature
100
AcDbLine
 10
116.550056078
 20
98.323641158
 30
-458.520703574
 11
116.550053826
 21
146.323641157
 31
-458.520703574
  0
CIRCLE
  5
AA2
330
A02
100
AcDbEntity
  8
Part__Feature
100
AcDbCircle
 10
371.550081463
 20
118.323354978
 30
-458.520703574
 40
2.700000000
  0
CIRCLE
  5
AA3
330
A02
100
AcDbEntity
  8
Part__Feature
100
AcDbCircle
 10
91.550079117
 20
68.323368116
 30
-458.520703574
 40
2.700000000
  0
LINE
  5
AA4
330
A02
100
AcDbEntity
  8
Part__Feature
100
AcDbLine
 10
114.550056172
 20
96.323641064
 30
-458.520703574
 11
114.550056172
 21
96.323641064
 31
-455.520703574
  0
LINE
  5
AA5
330
A02
100
AcDbEntity
  8
Part__Feature
100
AcDbLine
 10
114.550056172
 20
96.323641064
 30
-458.520703574
 11
103.550092101
 21
96.323640548
 31
-458.520703574
  0
LINE
  5
AA6
330
A02
100
AcDbEntity
  8
Part__Feature
100
AcDbLine
 10
103.550092101
 20
96.323640548
 30
-455.520703574
 11
103.550092101
 21
96.323640548
 31
-458.520703574
  0
LINE
  5
AA7
330
A02
100
AcDbEntity
  8
Part__Feature
100
AcDbLine
 10
114.550056172
 20
96.323641064
 30
-455.520703574
 11
103.550092101
 21
96.323640548
 31
-455.520703574
  0
ARC
  5
AA8
330
A02
100
AcDbEntity
  8
Part__Feature
100
AcDbCircle
 10
7.550049198
 20
7.323645785
 30
-458.520703574
 40
2.000000000
100
AcDbArc
 50
-179.999997311
 51
-90.000000670
  0
LINE
  5
AA9
330
A02
100
AcDbEntity
  8
Part__Feature
100
AcDbLine
 10
7.550049174
 20
5.323645785
 30
-458.520703574
 11
7.550049174
 21
5.323645785
 31
-455.520703574
  0
ARC
  5
AAA
330
A02
100
AcDbEntity
  8
Part__Feature
100
AcDbCircle
 10
7.550049198
 20
7.323645785
 30
-455.520703574
 40
2.000000000
100
AcDbArc
 50
-179.999997311
 51
-90.000000670
  0
LINE
  5
AAB
330
A02
100
AcDbEntity
  8
Part__Feature
100
AcDbLine
 10
5.550049198
 20
7.323645691
 30
-455.520703574
 11
5.550049198
 21
7.323645691
 31
-458.520703574
  0
LINE
  5
AAC
330
A02
100
AcDbEntity
  8
Part__Feature
100
AcDbLine
 10
7.550049174
 20
5.323645785
 30
-458.520703574
 11
7.550049174
 21
5.323645785
 31
-455.520703574
  0
LINE
  5
AAD
330
A02
100
AcDbEntity
  8
Part__Feature
100
AcDbLine
 10
54.721668579
 20
5.323645233
 30
-458.520703574
 11
7.550049174
 21
5.323645785
 31
-458.520703574
  0
LINE
  5
AAE
330
A02
100
AcDbEntity
  8
Part__Feature
100
AcDbLine
 10
54.721668579
 20
5.323645233
 30
-455.520703574
 11
54.721668579
 21
5.323645233
 31
-458.520703574
  0
LINE
  5
AAF
330
A02
100
AcDbEntity
  8
Part__Feature
100
AcDbLine
 10
7.550049174
 20
5.323645785
 30
-455.520703574
 11
54.721668579
 21
5.323645233
 31
-455.520703574
  0
LINE
  5
AB0
330
A02
100
AcDbEntity
  8
Part__Feature
100
AcDbLine
 10
5.550049198
 20
7.323645691
 30
-455.520703574
 11
5.550049198
 21
7.323645691
 31
-458.520703574
  0
LINE
  5
AB1
330
A02
100
AcDbEntity
  8
Part__Feature
100
AcDbLine
 10
5.550047296
 20
47.843923973
 30
-455.520703574
 11
5.550049198
 21
7.323645691
 31
-455.520703574
  0
LINE
  5
AB2
330
A02
100
AcDbEntity
  8
Part__Feature
100
AcDbLine
 10
5.550047297
 20
47.843923973
 30
-455.520703574
 11
5.550047297
 21
47.843923973
 31
-458.520703574
  0
LINE
  5
AB3
330
A02
100
AcDbEntity
  8
Part__Feature
100
AcDbLine
 10
5.550047297
 20
47.843923973
 30
-458.520703574
 11
5.550049198
 21
7.323645691
 31
-458.520703574
  0
ARC
  5
AB4
330
A02
100
AcDbEntity
  8
Part__Feature
100
AcDbCircle
 10
54.721668602
 20
7.323645233
 30
-455.520703574
 40
2.000000000
100
AcDbArc
 50
-90.000000670
 51
-44.999997311
  0
LINE
  5
AB5
330
A02
100
AcDbEntity
  8
Part__Feature
100
AcDbLine
 10
54.721668579
 20
5.323645233
 30
-455.520703574
 11
54.721668579
 21
5.323645233
 31
-458.520703574
  0
ARC
  5
AB6
330
A02
100
AcDbEntity
  8
Part__Feature
100
AcDbCircle
 10
54.721668602
 20
7.323645233
 30
-458.520703574
 40
2.000000000
100
AcDbArc
 50
-90.000000670
 51
-44.999997311
  0
LINE
  5
AB7
330
A02
100
AcDbEntity
  8
Part__Feature
100
AcDbLine
 10
56.135882231
 20
5.909431737
 30
-458.520703574
 11
56.135882231
 21
5.909431737
 31
-455.520703574
  0
LINE
  5
AB8
330
A02
100
AcDbEntity
  8
Part__Feature
100
AcDbLine
 10
56.135882231
 20
5.909431737
 30
-458.520703574
 11
56.135882231
 21
5.909431737
 31
-455.520703574
  0
LINE
  5
AB9
330
A02
100
AcDbEntity
  8
Part__Feature
100
AcDbLine
 10
60.028071893
 20
9.801621764
 30
-458.520703574
 11
56.135882231
 21
5.909431737
 31
-458.520703574
  0
LINE
  5
ABA
330
A02
100
AcDbEntity
  8
Part__Feature
100
AcDbLine
 10
60.028071893
 20
9.801621764
 30
-455.520703574
 11
60.028071893
 21
9.801621764
 31
-458.520703574
  0
LINE
  5
ABB
330
A02
100
AcDbEntity
  8
Part__Feature
100
AcDbLine
 10
56.135882231
 20
5.909431737
 30
-455.520703574
 11
60.028071893
 21
9.801621764
 31
-455.520703574
  0
ARC
  5
ABC
330
A02
100
AcDbEntity
  8
Part__Feature
100
AcDbCircle
 10
58.613858264
 20
11.215835261
 30
-455.520703574
 40
2.000000000
100
AcDbArc
 50
-44.999997311
 51
-29.054601411
  0
LINE
  5
ABD
330
A02
100
AcDbEntity
  8
Part__Feature
100
AcDbLine
 10
60.028071893
 20
9.801621764
 30
-455.520703574
 11
60.028071893
 21
9.801621764
 31
-458.520703574
  0
ARC
  5
ABE
330
A02
100
AcDbEntity
  8
Part__Feature
100
AcDbCircle
 10
58.613858264
 20
11.215835261
 30
-458.520703574
 40
2.000000000
100
AcDbArc
 50
-44.999997311
 51
-29.054601411
  0
LINE
  5
ABF
330
A02
100
AcDbEntity
  8
Part__Feature
100
AcDbLine
 10
60.362172862
 20
10.244549480
 30
-458.520703574
 11
60.362172862
 21
10.244549480
 31
-455.520703574
  0
ARC
  5
AC0
330
A02
100
AcDbEntity
  8
Part__Feature
100
AcDbCircle
 10
83.196235671
 20
30.323643896
 30
-458.520703574
 40
2.000000000
100
AcDbArc
 50
-131.409862385
 51
-89.999995967
  0
LINE
  5
AC1
330
A02
100
AcDbEntity
  8
Part__Feature
100
AcDbLine
 10
83.196235812
 20
28.323643896
 30
-458.520703574
 11
83.196235812
 21
28.323643896
 31
-455.520703574
  0
ARC
  5
AC2
330
A02
100
AcDbEntity
  8
Part__Feature
100
AcDbCircle
 10
83.196235671
 20
30.323643896
 30
-455.520703574
 40
2.000000000
100
AcDbArc
 50
-131.409862385
 51
-89.999995967
  0
LINE
  5
AC3
330
A02
100
AcDbEntity
  8
Part__Feature
100
AcDbLine
 10
81.873353725
 20
28.823649443
 30
-455.520703574
 11
81.873353725
 21
28.823649443
 31
-458.520703574
  0
LINE
  5
AC4
330
A02
100
AcDbEntity
  8
Part__Feature
100
AcDbLine
 10
83.196235812
 20
28.323643896
 30
-458.520703574
 11
83.196235812
 21
28.323643896
 31
-455.520703574
  0
LINE
  5
AC5
330
A02
100
AcDbEntity
  8
Part__Feature
100
AcDbLine
 10
83.196235812
 20
28.323644910
 30
-458.520703574
 11
379.818023495
 21
28.323665788
 31
-458.520703574
  0
LINE
  5
AC6
330
A02
100
AcDbEntity
  8
Part__Feature
100
AcDbLine
 10
379.818023495
 20
28.323664774
 30
-455.520703574
 11
379.818023495
 21
28.323664774
 31
-458.520703574
  0
LINE
  5
AC7
330
A02
100
AcDbEntity
  8
Part__Feature
100
AcDbLine
 10
379.818023495
 20
28.323665788
 30
-455.520703574
 11
83.196235812
 21
28.323644910
 31
-455.520703574
  0
LINE
  5
AC8
330
A02
100
AcDbEntity
  8
Part__Feature
100
AcDbLine
 10
118.550053732
 20
148.323641251
 30
-455.520703574
 11
118.550053732
 21
148.323641251
 31
-458.520703574
  0
LINE
  5
AC9
330
A02
100
AcDbEntity
  8
Part__Feature
100
AcDbLine
 10
133.550053732
 20
148.323641955
 30
-455.520703574
 11
118.550053732
 21
148.323641251
 31
-455.520703574
  0
LINE
  5
ACA
330
A02
100
AcDbEntity
  8
Part__Feature
100
AcDbLine
 10
133.550053732
 20
148.323641955
 30
-455.520703574
 11
133.550053732
 21
148.323641955
 31
-458.520703574
  0
LINE
  5
ACB
330
A02
100
AcDbEntity
  8
Part__Feature
100
AcDbLine
 10
133.550053732
 20
148.323641955
 30
-458.520703574
 11
118.550053732
 21
148.323641251
 31
-458.520703574
  0
ARC
  5
ACC
330
A02
100
AcDbEntity
  8
Part__Feature
100
AcDbCircle
 10
3.550047296
 20
47.843923879
 30
-455.520703574
 40
2.000000000
100
AcDbArc
 50
0.000002689
 51
75.522490503
  0
LINE
  5
ACD
330
A02
100
AcDbEntity
  8
Part__Feature
100
AcDbLine
 10
5.550047297
 20
47.843923973
 30
-455.520703574
 11
5.550047297
 21
47.843923973
 31
-458.520703574
  0
ARC
  5
ACE
330
A02
100
AcDbEntity
  8
Part__Feature
100
AcDbCircle
 10
3.550047297
 20
47.843923879
 30
-458.520703574
 40
2.000000000
100
AcDbArc
 50
0.000002689
 51
75.522490503
  0
LINE
  5
ACF
330
A02
100
AcDbEntity
  8
Part__Feature
100
AcDbLine
 10
4.050047206
 20
49.780415575
 30
-455.520703574
 11
4.050047206
 21
49.780415575
 31
-458.520703574
  0
LINE
  5
AD0
330
A02
100
AcDbEntity
  8
Part__Feature
100
AcDbLine
 10
2.550047115
 20
51.716907178
 30
-458.520703574
 11
2.550047115
 21
51.716907178
 31
-455.520703574
  0
ARC
  5
AD1
330
A02
100
AcDbEntity
  8
Part__Feature
100
AcDbCircle
 10
4.550047115
 20
51.716907272
 30
-458.520703574
 40
2.000000000
100
AcDbArc
 50
-179.999997311
 51
-104.477509497
  0
LINE
  5
AD2
330
A02
100
AcDbEntity
  8
Part__Feature
100
AcDbLine
 10
4.050047206
 20
49.780415575
 30
-455.520703574
 11
4.050047206
 21
49.780415575
 31
-458.520703574
  0
ARC
  5
AD3
330
A02
100
AcDbEntity
  8
Part__Feature
100
AcDbCircle
 10
4.550047115
 20
51.716907272
 30
-455.520703574
 40
2.000000000
100
AcDbArc
 50
-179.999997311
 51
-104.477509497
  0
LINE
  5
AD4
330
A02
100
AcDbEntity
  8
Part__Feature
100
AcDbLine
 10
135.550053826
 20
146.323642049
 30
-458.520703574
 11
135.550053826
 21
146.323642049
 31
-455.520703574
  0
ARC
  5
AD5
330
A02
100
AcDbEntity
  8
Part__Feature
100
AcDbCircle
 10
133.550053826
 20
146.323641955
 30
-458.520703574
 40
2.000000000
100
AcDbArc
 50
0.000002689
 51
90.000002689
  0
LINE
  5
AD6
330
A02
100
AcDbEntity
  8
Part__Feature
100
AcDbLine
 10
133.550053732
 20
148.323641955
 30
-455.520703574
 11
133.550053732
 21
148.323641955
 31
-458.520703574
  0
ARC
  5
AD7
330
A02
100
AcDbEntity
  8
Part__Feature
100
AcDbCircle
 10
133.550053826
 20
146.323641955
 30
-455.520703574
 40
2.000000000
100
AcDbArc
 50
0.000002689
 51
90.000002689
  0
LINE
  5
AD8
330
A02
100
AcDbEntity
  8
Part__Feature
100
AcDbLine
 10
135.550055562
 20
109.323642049
 30
-455.520703574
 11
135.550055562
 21
109.323642049
 31
-458.520703574
  0
LINE
  5
AD9
330
A02
100
AcDbEntity
  8
Part__Feature
100
AcDbLine
 10
135.550055562
 20
109.323642049
 30
-458.520703574
 11
135.550053826
 21
146.323642049
 31
-458.520703574
  0
LINE
  5
ADA
330
A02
100
AcDbEntity
  8
Part__Feature
100
AcDbLine
 10
135.550053826
 20
146.323642049
 30
-458.520703574
 11
135.550053826
 21
146.323642049
 31
-455.520703574
  0
LINE
  5
ADB
330
A02
100
AcDbEntity
  8
Part__Feature
100
AcDbLine
 10
135.550055562
 20
109.323642049
 30
-455.520703574
 11
135.550053826
 21
146.323642049
 31
-455.520703574
  0
ARC
  5
ADC
330
A02
100
AcDbEntity
  8
Part__Feature
100
AcDbCircle
 10
137.550055562
 20
109.323642143
 30
-455.520703574
 40
2.000000000
100
AcDbArc
 50
-179.999997311
 51
-89.999997311
  0
LINE
  5
ADD
330
A02
100
AcDbEntity
  8
Part__Feature
100
AcDbLine
 10
135.550055562
 20
109.323642049
 30
-455.520703574
 11
135.550055562
 21
109.323642049
 31
-458.520703574
  0
ARC
  5
ADE
330
A02
100
AcDbEntity
  8
Part__Feature
100
AcDbCircle
 10
137.550055562
 20
109.323642143
 30
-458.520703574
 40
2.000000000
100
AcDbArc
 50
-179.999997311
 51
-89.999997311
  0
LINE
  5
ADF
330
A02
100
AcDbEntity
  8
Part__Feature
100
AcDbLine
 10
137.550055656
 20
107.323642143
 30
-458.520703574
 11
137.550055656
 21
107.323642143
 31
-455.520703574
  0
LINE
  5
AE0
330
A02
100
AcDbEntity
  8
Part__Feature
100
AcDbLine
 10
221.550055656
 20
107.323646085
 30
-455.520703574
 11
221.550055656
 21
107.323646085
 31
-458.520703574
  0
LINE
  5
AE1
330
A02
100
AcDbEntity
  8
Part__Feature
100
AcDbLine
 10
137.550055656
 20
107.323642143
 30
-458.520703574
 11
221.550055656
 21
107.323646085
 31
-458.520703574
  0
LINE
  5
AE2
330
A02
100
AcDbEntity
  8
Part__Feature
100
AcDbLine
 10
137.550055656
 20
107.323642143
 30
-458.520703574
 11
137.550055656
 21
107.323642143
 31
-455.520703574
  0
LINE
  5
AE3
330
A02
100
AcDbEntity
  8
Part__Feature
100
AcDbLine
 10
221.550055656
 20
107.323646085
 30
-455.520703574
 11
137.550055656
 21
107.323642143
 31
-455.520703574
  0
LINE
  5
AE4
330
A02
100
AcDbEntity
  8
Part__Feature
100
AcDbLine
 10
231.550055937
 20
101.323646554
 30
-455.520703574
 11
231.550055937
 21
101.323646554
 31
-458.520703574
  0
LINE
  5
AE5
330
A02
100
AcDbEntity
  8
Part__Feature
100
AcDbLine
 10
231.550055937
 20
101.323646554
 30
-458.520703574
 11
225.550055937
 21
101.323646272
 31
-458.520703574
  0
LINE
  5
AE6
330
A02
100
AcDbEntity
  8
Part__Feature
100
AcDbLine
 10
225.550055937
 20
101.323646272
 30
-458.520703574
 11
225.550055937
 21
101.323646272
 31
-455.520703574
  0
LINE
  5
AE7
330
A02
100
AcDbEntity
  8
Part__Feature
100
AcDbLine
 10
231.550055937
 20
101.323646554
 30
-455.520703574
 11
225.550055937
 21
101.323646272
 31
-455.520703574
  0
ARC
  5
AE8
330
A02
100
AcDbEntity
  8
Part__Feature
100
AcDbCircle
 10
221.550055749
 20
105.323646085
 30
-458.520703574
 40
2.000000000
100
AcDbArc
 50
0.000002689
 51
90.000002689
  0
LINE
  5
AE9
330
A02
100
AcDbEntity
  8
Part__Feature
100
AcDbLine
 10
221.550055656
 20
107.323646085
 30
-455.520703574
 11
221.550055656
 21
107.323646085
 31
-458.520703574
  0
ARC
  5
AEA
330
A02
100
AcDbEntity
  8
Part__Feature
100
AcDbCircle
 10
221.550055749
 20
105.323646085
 30
-455.520703574
 40
2.000000000
100
AcDbArc
 50
0.000002689
 51
90.000002689
  0
LINE
  5
AEB
330
A02
100
AcDbEntity
  8
Part__Feature
100
AcDbLine
 10
223.550055749
 20
105.323646178
 30
-458.520703574
 11
223.550055749
 21
105.323646178
 31
-455.520703574
  0
LINE
  5
AEC
330
A02
100
AcDbEntity
  8
Part__Feature
100
AcDbLine
 10
223.550055843
 20
103.323646178
 30
-455.520703574
 11
223.550055843
 21
103.323646178
 31
-458.520703574
  0
LINE
  5
AED
330
A02
100
AcDbEntity
  8
Part__Feature
100
AcDbLine
 10
223.550055749
 20
105.323646178
 30
-458.520703574
 11
223.550055843
 21
103.323646178
 31
-458.520703574
  0
LINE
  5
AEE
330
A02
100
AcDbEntity
  8
Part__Feature
100
AcDbLine
 10
223.550055749
 20
105.323646178
 30
-458.520703574
 11
223.550055749
 21
105.323646178
 31
-455.520703574
  0
LINE
  5
AEF
330
A02
100
AcDbEntity
  8
Part__Feature
100
AcDbLine
 10
223.550055843
 20
103.323646178
 30
-455.520703574
 11
223.550055749
 21
105.323646178
 31
-455.520703574
  0
ARC
  5
AF0
330
A02
100
AcDbEntity
  8
Part__Feature
100
AcDbCircle
 10
225.550055843
 20
103.323646272
 30
-455.520703574
 40
2.000000000
100
AcDbArc
 50
-179.999997311
 51
-89.999997311
  0
LINE
  5
AF1
330
A02
100
AcDbEntity
  8
Part__Feature
100
AcDbLine
 10
223.550055843
 20
103.323646178
 30
-455.520703574
 11
223.550055843
 21
103.323646178
 31
-458.520703574
  0
ARC
  5
AF2
330
A02
100
AcDbEntity
  8
Part__Feature
100
AcDbCircle
 10
225.550055843
 20
103.323646272
 30
-458.520703574
 40
2.000000000
100
AcDbArc
 50
-179.999997311
 51
-89.999997311
  0
LINE
  5
AF3
330
A02
100
AcDbEntity
  8
Part__Feature
100
AcDbLine
 10
225.550055937
 20
101.323646272
 30
-458.520703574
 11
225.550055937
 21
101.323646272
 31
-455.520703574
  0
LINE
  5
AF4
330
A02
100
AcDbEntity
  8
Part__Feature
100
AcDbLine
 10
233.550055843
 20
103.323646648
 30
-458.520703574
 11
233.550055843
 21
103.323646648
 31
-455.520703574
  0
ARC
  5
AF5
330
A02
100
AcDbEntity
  8
Part__Feature
100
AcDbCircle
 10
231.550055843
 20
103.323646554
 30
-455.520703574
 40
2.000000000
100
AcDbArc
 50
-89.999997311
 51
0.000002689
  0
LINE
  5
AF6
330
A02
100
AcDbEntity
  8
Part__Feature
100
AcDbLine
 10
231.550055937
 20
101.323646554
 30
-455.520703574
 11
231.550055937
 21
101.323646554
 31
-458.520703574
  0
ARC
  5
AF7
330
A02
100
AcDbEntity
  8
Part__Feature
100
AcDbCircle
 10
231.550055843
 20
103.323646554
 30
-458.520703574
 40
2.000000000
100
AcDbArc
 50
-89.999997311
 51
0.000002689
  0
LINE
  5
AF8
330
A02
100
AcDbEntity
  8
Part__Feature
100
AcDbLine
 10
233.550053826
 20
146.323646647
 30
-455.520703574
 11
233.550053826
 21
146.323646647
 31
-458.520703574
  0
LINE
  5
AF9
330
A02
100
AcDbEntity
  8
Part__Feature
100
AcDbLine
 10
233.550053826
 20
146.323646647
 30
-458.520703574
 11
233.550055843
 21
103.323646648
 31
-458.520703574
  0
LINE
  5
AFA
330
A02
100
AcDbEntity
  8
Part__Feature
100
AcDbLine
 10
233.550055843
 20
103.323646648
 30
-458.520703574
 11
233.550055843
 21
103.323646648
 31
-455.520703574
  0
LINE
  5
AFB
330
A02
100
AcDbEntity
  8
Part__Feature
100
AcDbLine
 10
233.550053826
 20
146.323646647
 30
-455.520703574
 11
233.550055843
 21
103.323646648
 31
-455.520703574
  0
ARC
  5
AFC
330
A02
100
AcDbEntity
  8
Part__Feature
100
AcDbCircle
 10
235.550053826
 20
146.323646741
 30
-458.520703574
 40
2.000000000
100
AcDbArc
 50
90.000002689
 51
-179.999997311
  0
LINE
  5
AFD
330
A02
100
AcDbEntity
  8
Part__Feature
100
AcDbLine
 10
233.550053826
 20
146.323646647
 30
-455.520703574
 11
233.550053826
 21
146.323646647
 31
-458.520703574
  0
ARC
  5
AFE
330
A02
100
AcDbEntity
  8
Part__Feature
100
AcDbCircle
 10
235.550053826
 20
146.323646741
 30
-455.520703574
 40
2.000000000
100
AcDbArc
 50
90.000002689
 51
-179.999997311
  0
LINE
  5
AFF
330
A02
100
AcDbEntity
  8
Part__Feature
100
AcDbLine
 10
235.550053732
 20
148.323646741
 30
-458.520703574
 11
235.550053732
 21
148.323646741
 31
-455.520703574
  0
LINE
  5
B00
330
A02
100
AcDbEntity
  8
Part__Feature
100
AcDbLine
 10
460.550058256
 20
51.907453650
 30
-455.520703574
 11
460.550058256
 21
51.907453650
 31
-458.520703574
  0
LINE
  5
B01
330
A02
100
AcDbEntity
  8
Part__Feature
100
AcDbLine
 10
460.550053826
 20
146.323657299
 30
-458.520703574
 11
460.550058256
 21
51.907453650
 31
-458.520703574
  0
LINE
  5
B02
330
A02
100
AcDbEntity
  8
Part__Feature
100
AcDbLine
 10
460.550053826
 20
146.323657299
 30
-458.520703574
 11
460.550053826
 21
146.323657299
 31
-455.520703574
  0
LINE
  5
B03
330
A02
100
AcDbEntity
  8
Part__Feature
100
AcDbLine
 10
460.550058256
 20
51.907453650
 30
-455.520703574
 11
460.550053826
 21
146.323657299
 31
-455.520703574
  0
LINE
  5
B04
330
A02
100
AcDbEntity
  8
Part__Feature
100
AcDbLine
 10
458.550053732
 20
148.323657205
 30
-455.520703574
 11
458.550053732
 21
148.323657205
 31
-458.520703574
  0
LINE
  5
B05
330
A02
100
AcDbEntity
  8
Part__Feature
100
AcDbLine
 10
235.550053732
 20
148.323646741
 30
-458.520703574
 11
458.550053732
 21
148.323657205
 31
-458.520703574
  0
LINE
  5
B06
330
A02
100
AcDbEntity
  8
Part__Feature
100
AcDbLine
 10
235.550053732
 20
148.323646741
 30
-458.520703574
 11
235.550053732
 21
148.323646741
 31
-455.520703574
  0
LINE
  5
B07
330
A02
100
AcDbEntity
  8
Part__Feature
100
AcDbLine
 10
458.550053732
 20
148.323657205
 30
-455.520703574
 11
235.550053732
 21
148.323646741
 31
-455.520703574
  0
ARC
  5
B08
330
A02
100
AcDbEntity
  8
Part__Feature
100
AcDbCircle
 10
458.550053826
 20
146.323657205
 30
-458.520703574
 40
2.000000000
100
AcDbArc
 50
0.000002689
 51
90.000002689
  0
LINE
  5
B09
330
A02
100
AcDbEntity
  8
Part__Feature
100
AcDbLine
 10
458.550053732
 20
148.323657205
 30
-455.520703574
 11
458.550053732
 21
148.323657205
 31
-458.520703574
  0
ARC
  5
B0A
330
A02
100
AcDbEntity
  8
Part__Feature
100
AcDbCircle
 10
458.550053826
 20
146.323657205
 30
-455.520703574
 40
2.000000000
100
AcDbArc
 50
0.000002689
 51
90.000002689
  0
LINE
  5
B0B
330
A02
100
AcDbEntity
  8
Part__Feature
100
AcDbLine
 10
460.550053826
 20
146.323657299
 30
-458.520703574
 11
460.550053826
 21
146.323657299
 31
-455.520703574
  0
LINE
  5
B0C
330
A02
100
AcDbEntity
  8
Part__Feature
100
AcDbLine
 10
459.050058347
 20
49.970961906
 30
-455.520703574
 11
459.050058347
 21
49.970961906
 31
-458.520703574
  0
ARC
  5
B0D
330
A02
100
AcDbEntity
  8
Part__Feature
100
AcDbCircle
 10
458.550058256
 20
51.907453556
 30
-458.520703574
 40
2.000000000
100
AcDbArc
 50
-75.522485133
 51
0.000002689
  0
LINE
  5
B0E
330
A02
100
AcDbEntity
  8
Part__Feature
100
AcDbLine
 10
460.550058256
 20
51.907453650
 30
-455.520703574
 11
460.550058256
 21
51.907453650
 31
-458.520703574
  0
ARC
  5
B0F
330
A02
100
AcDbEntity
  8
Part__Feature
100
AcDbCircle
 10
458.550058256
 20
51.907453556
 30
-455.520703574
 40
2.000000000
100
AcDbArc
 50
-75.522485133
 51
0.000002689
  0
ARC
  5
B10
330
A02
100
AcDbEntity
  8
Part__Feature
100
AcDbCircle
 10
459.550058437
 20
48.034470256
 30
-455.520703574
 40
2.000000000
100
AcDbArc
 50
104.477514867
 51
-179.999997311
  0
LINE
  5
B11
330
A02
100
AcDbEntity
  8
Part__Feature
100
AcDbLine
 10
459.050058347
 20
49.970961906
 30
-455.520703574
 11
459.050058347
 21
49.970961906
 31
-458.520703574
  0
ARC
  5
B12
330
A02
100
AcDbEntity
  8
Part__Feature
100
AcDbCircle
 10
459.550058437
 20
48.034470256
 30
-458.520703574
 40
2.000000000
100
AcDbArc
 50
104.477514867
 51
-179.999997311
  0
LINE
  5
B13
330
A02
100
AcDbEntity
  8
Part__Feature
100
AcDbLine
 10
457.550058437
 20
48.034470163
 30
-458.520703574
 11
457.550058437
 21
48.034470163
 31
-455.520703574
  0
LINE
  5
B14
330
A02
100
AcDbEntity
  8
Part__Feature
100
AcDbLine
 10
2.550043661
 20
125.323635808
 30
-458.520703574
 11
2.550043661
 21
125.323635808
 31
-455.520703574
  0
LINE
  5
B15
330
A02
100
AcDbEntity
  8
Part__Feature
100
AcDbLine
 10
2.550043661
 20
125.323635808
 30
-458.520703574
 11
2.550047115
 21
51.716907178
 31
-458.520703574
  0
LINE
  5
B16
330
A02
100
AcDbEntity
  8
Part__Feature
100
AcDbLine
 10
2.550047115
 20
51.716907178
 30
-458.520703574
 11
2.550047115
 21
51.716907178
 31
-455.520703574
  0
LINE
  5
B17
330
A02
100
AcDbEntity
  8
Part__Feature
100
AcDbLine
 10
2.550043661
 20
125.323635808
 30
-455.520703574
 11
2.550047115
 21
51.716907178
 31
-455.520703574
  0
LINE
  5
B18
330
A02
100
AcDbEntity
  8
Part__Feature
100
AcDbLine
 10
99.550089661
 20
148.323640359
 30
-458.520703574
 11
99.550089661
 21
148.323640359
 31
-455.520703574
  0
LINE
  5
B19
330
A02
100
AcDbEntity
  8
Part__Feature
100
AcDbLine
 10
54.550042582
 20
148.323638248
 30
-458.520703574
 11
99.550089661
 21
148.323640359
 31
-458.520703574
  0
LINE
  5
B1A
330
A02
100
AcDbEntity
  8
Part__Feature
100
AcDbLine
 10
54.550042582
 20
148.323638248
 30
-458.520703574
 11
54.550042582
 21
148.323638248
 31
-455.520703574
  0
LINE
  5
B1B
330
A02
100
AcDbEntity
  8
Part__Feature
100
AcDbLine
 10
99.550089661
 20
148.323640359
 30
-455.520703574
 11
54.550042582
 21
148.323638248
 31
-455.520703574
  0
LINE
  5
B1C
330
A02
100
AcDbEntity
  8
Part__Feature
100
AcDbLine
 10
52.550043473
 20
129.323638154
 30
-455.520703574
 11
52.550043473
 21
129.323638154
 31
-458.520703574
  0
LINE
  5
B1D
330
A02
100
AcDbEntity
  8
Part__Feature
100
AcDbLine
 10
52.550042675
 20
146.323638154
 30
-455.520703574
 11
52.550043473
 21
129.323638154
 31
-455.520703574
  0
LINE
  5
B1E
330
A02
100
AcDbEntity
  8
Part__Feature
100
AcDbLine
 10
52.550042675
 20
146.323638154
 30
-458.520703574
 11
52.550042675
 21
146.323638154
 31
-455.520703574
  0
LINE
  5
B1F
330
A02
100
AcDbEntity
  8
Part__Feature
100
AcDbLine
 10
52.550043473
 20
129.323638154
 30
-458.520703574
 11
52.550042675
 21
146.323638154
 31
-458.520703574
  0
LINE
  5
B20
330
A02
100
AcDbEntity
  8
Part__Feature
100
AcDbLine
 10
54.550042582
 20
148.323638248
 30
-458.520703574
 11
54.550042582
 21
148.323638248
 31
-455.520703574
  0
ARC
  5
B21
330
A02
100
AcDbEntity
  8
Part__Feature
100
AcDbCircle
 10
54.550042675
 20
146.323638248
 30
-458.520703574
 40
2.000000000
100
AcDbArc
 50
90.000002689
 51
-179.999997311
  0
LINE
  5
B22
330
A02
100
AcDbEntity
  8
Part__Feature
100
AcDbLine
 10
52.550042675
 20
146.323638154
 30
-458.520703574
 11
52.550042675
 21
146.323638154
 31
-455.520703574
  0
ARC
  5
B23
330
A02
100
AcDbEntity
  8
Part__Feature
100
AcDbCircle
 10
54.550042675
 20
146.323638248
 30
-455.520703574
 40
2.000000000
100
AcDbArc
 50
90.000002689
 51
-179.999997311
  0
LINE
  5
B24
330
A02
100
AcDbEntity
  8
Part__Feature
100
AcDbLine
 10
52.550043473
 20
129.323638154
 30
-455.520703574
 11
52.550043473
 21
129.323638154
 31
-458.520703574
  0
ARC
  5
B25
330
A02
100
AcDbEntity
  8
Part__Feature
100
AcDbCircle
 10
50.550043473
 20
129.323638060
 30
-455.520703574
 40
2.000000000
100
AcDbArc
 50
-89.999997311
 51
0.000002689
  0
LINE
  5
B26
330
A02
100
AcDbEntity
  8
Part__Feature
100
AcDbLine
 10
50.550043567
 20
127.323638060
 30
-458.520703574
 11
50.550043567
 21
127.323638060
 31
-455.520703574
  0
ARC
  5
B27
330
A02
100
AcDbEntity
  8
Part__Feature
100
AcDbCircle
 10
50.550043473
 20
129.323638060
 30
-458.520703574
 40
2.000000000
100
AcDbArc
 50
-89.999997311
 51
0.000002689
  0
LINE
  5
B28
330
A02
100
AcDbEntity
  8
Part__Feature
100
AcDbLine
 10
4.550043567
 20
127.323635902
 30
-455.520703574
 11
4.550043567
 21
127.323635902
 31
-458.520703574
  0
LINE
  5
B29
330
A02
100
AcDbEntity
  8
Part__Feature
100
AcDbLine
 10
50.550043567
 20
127.323638060
 30
-455.520703574
 11
4.550043567
 21
127.323635902
 31
-455.520703574
  0
LINE
  5
B2A
330
A02
100
AcDbEntity
  8
Part__Feature
100
AcDbLine
 10
50.550043567
 20
127.323638060
 30
-458.520703574
 11
50.550043567
 21
127.323638060
 31
-455.520703574
  0
LINE
  5
B2B
330
A02
100
AcDbEntity
  8
Part__Feature
100
AcDbLine
 10
4.550043567
 20
127.323635902
 30
-458.520703574
 11
50.550043567
 21
127.323638060
 31
-458.520703574
  0
ARC
  5
B2C
330
A02
100
AcDbEntity
  8
Part__Feature
100
AcDbCircle
 10
4.550043661
 20
125.323635902
 30
-458.520703574
 40
2.000000000
100
AcDbArc
 50
90.000002689
 51
-179.999997311
  0
LINE
  5
B2D
330
A02
100
AcDbEntity
  8
Part__Feature
100
AcDbLine
 10
2.550043661
 20
125.323635808
 30
-458.520703574
 11
2.550043661
 21
125.323635808
 31
-455.520703574
  0
ARC
  5
B2E
330
A02
100
AcDbEntity
  8
Part__Feature
100
AcDbCircle
 10
4.550043661
 20
125.323635902
 30
-455.520703574
 40
2.000000000
100
AcDbArc
 50
90.000002689
 51
-179.999997311
  0
LINE
  5
B2F
330
A02
100
AcDbEntity
  8
Part__Feature
100
AcDbLine
 10
4.550043567
 20
127.323635902
 30
-455.520703574
 11
4.550043567
 21
127.323635902
 31
-458.520703574
  0
LINE
  5
B30
330
A02
100
AcDbEntity
  8
Part__Feature
100
AcDbLine
 10
457.550060753
 20
-1.313800528
 30
-458.520695650
 11
457.550060753
 21
-1.313800528
 31
-455.520703574
  0
LINE
  5
B31
330
A02
100
AcDbEntity
  8
Part__Feature
100
AcDbLine
 10
457.550058437
 20
48.034470163
 30
-458.520695650
 11
457.550060753
 21
-1.313800528
 31
-458.520695650
  0
LINE
  5
B32
330
A02
100
AcDbEntity
  8
Part__Feature
100
AcDbLine
 10
457.550058437
 20
48.034470163
 30
-458.520703574
 11
457.550058437
 21
48.034470163
 31
-455.520703574
  0
LINE
  5
B33
330
A02
100
AcDbEntity
  8
Part__Feature
100
AcDbLine
 10
457.550058437
 20
48.034470163
 30
-455.520703574
 11
457.550060753
 21
-1.313800528
 31
-455.520703574
  0
LINE
  5
B34
330
A02
100
AcDbEntity
  8
Part__Feature
100
AcDbLine
 10
396.821671688
 20
14.083124495
 30
-455.520703574
 11
396.821671688
 21
14.083124495
 31
-458.520703574
  0
LINE
  5
B35
330
A02
100
AcDbEntity
  8
Part__Feature
100
AcDbLine
 10
392.772696932
 20
27.886604144
 30
-455.520703574
 11
396.821671688
 21
14.083124495
 31
-455.520703574
  0
LINE
  5
B36
330
A02
100
AcDbEntity
  8
Part__Feature
100
AcDbLine
 10
392.772696932
 20
27.886604144
 30
-455.520703574
 11
392.772696932
 21
27.886604144
 31
-458.520703574
  0
LINE
  5
B37
330
A02
100
AcDbEntity
  8
Part__Feature
100
AcDbLine
 10
396.821671688
 20
14.083124495
 30
-458.520703574
 11
392.772696932
 21
27.886604144
 31
-458.520703574
  0
LINE
  5
B38
330
A02
100
AcDbEntity
  8
Part__Feature
100
AcDbLine
 10
423.294828770
 20
-2.563350976
 30
-458.520703574
 11
423.294828770
 21
-2.563350976
 31
-455.520703574
  0
LINE
  5
B39
330
A02
100
AcDbEntity
  8
Part__Feature
100
AcDbLine
 10
442.140395849
 20
-5.612506652
 30
-458.520703574
 11
423.294828770
 21
-2.563350976
 31
-458.520703574
  0
LINE
  5
B3A
330
A02
100
AcDbEntity
  8
Part__Feature
100
AcDbLine
 10
442.140395849
 20
-5.612506652
 30
-455.520703574
 11
442.140395849
 21
-5.612506652
 31
-458.520703574
  0
LINE
  5
B3B
330
A02
100
AcDbEntity
  8
Part__Feature
100
AcDbLine
 10
423.294828770
 20
-2.563350976
 30
-455.520703574
 11
442.140395849
 21
-5.612506652
 31
-455.520703574
  0
LINE
  5
B3C
330
A02
100
AcDbEntity
  8
Part__Feature
100
AcDbLine
 10
390.853557150
 20
29.323662890
 30
-455.520703574
 11
390.853557150
 21
29.323662890
 31
-458.520703574
  0
ARC
  5
B3D
330
A02
100
AcDbEntity
  8
Part__Feature
100
AcDbCircle
 10
390.853557244
 20
27.323662890
 30
-455.520703574
 40
2.000000000
100
AcDbArc
 50
16.347995961
 51
90.000002689
  0
LINE
  5
B3E
330
A02
100
AcDbEntity
  8
Part__Feature
100
AcDbLine
 10
392.772696932
 20
27.886604144
 30
-455.520703574
 11
392.772696932
 21
27.886604144
 31
-458.520703574
  0
ARC
  5
B3F
330
A02
100
AcDbEntity
  8
Part__Feature
100
AcDbCircle
 10
390.853557244
 20
27.323662890
 30
-458.520703574
 40
2.000000000
100
AcDbArc
 50
16.347995961
 51
90.000002689
  0
ARC
  5
B40
330
A02
100
AcDbEntity
  8
Part__Feature
100
AcDbCircle
 10
455.550060753
 20
-1.313800621
 30
-458.520703574
 40
2.000000000
100
AcDbArc
 50
-121.551382340
 51
0.000002689
  0
LINE
  5
B41
330
A02
100
AcDbEntity
  8
Part__Feature
100
AcDbLine
 10
457.550060753
 20
-1.313800528
 30
-458.520695650
 11
457.550060753
 21
-1.313800528
 31
-455.520703574
  0
ARC
  5
B42
330
A02
100
AcDbEntity
  8
Part__Feature
100
AcDbCircle
 10
455.550060753
 20
-1.313800621
 30
-455.520703574
 40
2.000000000
100
AcDbArc
 50
-121.551382340
 51
0.000002689
  0
LINE
  5
B43
330
A02
100
AcDbEntity
  8
Part__Feature
100
AcDbLine
 10
454.503534764
 20
-3.018143120
 30
-455.520703574
 11
454.503534764
 21
-3.018143120
 31
-458.520703574
  0
LINE
  5
B44
330
A02
100
AcDbEntity
  8
Part__Feature
100
AcDbLine
 10
452.242602425
 20
-1.629851475
 30
-458.520703574
 11
452.242602425
 21
-1.629851475
 31
-455.520703574
  0
LINE
  5
B45
330
A02
100
AcDbEntity
  8
Part__Feature
100
AcDbLine
 10
454.503534764
 20
-3.018143120
 30
-458.520703574
 11
452.242602425
 21
-1.629851475
 31
-458.520703574
  0
LINE
  5
B46
330
A02
100
AcDbEntity
  8
Part__Feature
100
AcDbLine
 10
454.503534764
 20
-3.018143120
 30
-455.520703574
 11
454.503534764
 21
-3.018143120
 31
-458.520703574
  0
LINE
  5
B47
330
A02
100
AcDbEntity
  8
Part__Feature
100
AcDbLine
 10
452.242602425
 20
-1.629851475
 30
-455.520703574
 11
454.503534764
 21
-3.018143120
 31
-455.520703574
  0
LINE
  5
B48
330
A02
100
AcDbEntity
  8
Part__Feature
100
AcDbLine
 10
450.219616444
 20
-1.588763974
 30
-455.520703574
 11
450.219616444
 21
-1.588763974
 31
-458.520703574
  0
ARC
  5
B49
330
A02
100
AcDbEntity
  8
Part__Feature
100
AcDbCircle
 10
451.196076436
 20
-3.334193974
 30
-455.520703574
 40
2.000000000
100
AcDbArc
 50
58.448617660
 51
119.224310593
  0
LINE
  5
B4A
330
A02
100
AcDbEntity
  8
Part__Feature
100
AcDbLine
 10
452.242602425
 20
-1.629851475
 30
-458.520703574
 11
452.242602425
 21
-1.629851475
 31
-455.520703574
  0
ARC
  5
B4B
330
A02
100
AcDbEntity
  8
Part__Feature
100
AcDbCircle
 10
451.196076436
 20
-3.334193974
 30
-458.520703574
 40
2.000000000
100
AcDbArc
 50
58.448617660
 51
119.224310593
  0
LINE
  5
B4C
330
A02
100
AcDbEntity
  8
Part__Feature
100
AcDbLine
 10
443.436295607
 20
-5.383611897
 30
-458.520703574
 11
443.436295607
 21
-5.383611897
 31
-455.520703574
  0
LINE
  5
B4D
330
A02
100
AcDbEntity
  8
Part__Feature
100
AcDbLine
 10
450.219616444
 20
-1.588763974
 30
-458.520703574
 11
443.436295607
 21
-5.383611897
 31
-458.520703574
  0
LINE
  5
B4E
330
A02
100
AcDbEntity
  8
Part__Feature
100
AcDbLine
 10
450.219616444
 20
-1.588763974
 30
-455.520703574
 11
450.219616444
 21
-1.588763974
 31
-458.520703574
  0
LINE
  5
B4F
330
A02
100
AcDbEntity
  8
Part__Feature
100
AcDbLine
 10
443.436295607
 20
-5.383611897
 30
-455.520703574
 11
450.219616444
 21
-1.588763974
 31
-455.520703574
  0
ARC
  5
B50
330
A02
100
AcDbEntity
  8
Part__Feature
100
AcDbCircle
 10
442.459835615
 20
-3.638181898
 30
-458.520703574
 40
2.000000000
100
AcDbArc
 50
-99.190637599
 51
-60.775689407
  0
LINE
  5
B51
330
A02
100
AcDbEntity
  8
Part__Feature
100
AcDbLine
 10
443.436295607
 20
-5.383611897
 30
-458.520703574
 11
443.436295607
 21
-5.383611897
 31
-455.520703574
  0
ARC
  5
B52
330
A02
100
AcDbEntity
  8
Part__Feature
100
AcDbCircle
 10
442.459835615
 20
-3.638181898
 30
-455.520703574
 40
2.000000000
100
AcDbArc
 50
-99.190637599
 51
-60.775689407
  0
LINE
  5
B53
330
A02
100
AcDbEntity
  8
Part__Feature
100
AcDbLine
 10
442.140395849
 20
-5.612506652
 30
-455.520703574
 11
442.140395849
 21
-5.612506652
 31
-458.520703574
  0
ARC
  5
B54
330
A02
100
AcDbEntity
  8
Part__Feature
100
AcDbCircle
 10
423.614268536
 20
-0.589026222
 30
-458.520703574
 40
2.000000000
100
AcDbArc
 50
-121.487635969
 51
-99.190637598
  0
LINE
  5
B55
330
A02
100
AcDbEntity
  8
Part__Feature
100
AcDbLine
 10
423.294828770
 20
-2.563350976
 30
-458.520703574
 11
423.294828770
 21
-2.563350976
 31
-455.520703574
  0
ARC
  5
B56
330
A02
100
AcDbEntity
  8
Part__Feature
100
AcDbCircle
 10
423.614268536
 20
-0.589026222
 30
-455.520703574
 40
2.000000000
100
AcDbArc
 50
-121.487635969
 51
-99.190637598
  0
LINE
  5
B57
330
A02
100
AcDbEntity
  8
Part__Feature
100
AcDbLine
 10
422.569639418
 20
-2.294532014
 30
-455.520703574
 11
422.569639418
 21
-2.294532014
 31
-458.520703574
  0
LINE
  5
B58
330
A02
100
AcDbEntity
  8
Part__Feature
100
AcDbLine
 10
397.696182259
 20
12.940559957
 30
-458.520703574
 11
397.696182259
 21
12.940559957
 31
-455.520703574
  0
LINE
  5
B59
330
A02
100
AcDbEntity
  8
Part__Feature
100
AcDbLine
 10
422.569639418
 20
-2.294532014
 30
-458.520703574
 11
397.696182259
 21
12.940559957
 31
-458.520703574
  0
LINE
  5
B5A
330
A02
100
AcDbEntity
  8
Part__Feature
100
AcDbLine
 10
422.569639418
 20
-2.294532014
 30
-455.520703574
 11
422.569639418
 21
-2.294532014
 31
-458.520703574
  0
LINE
  5
B5B
330
A02
100
AcDbEntity
  8
Part__Feature
100
AcDbLine
 10
397.696182259
 20
12.940559957
 30
-455.520703574
 11
422.569639418
 21
-2.294532014
 31
-455.520703574
  0
ARC
  5
B5C
330
A02
100
AcDbEntity
  8
Part__Feature
100
AcDbCircle
 10
398.740811377
 20
14.646065749
 30
-458.520703574
 40
2.000000000
100
AcDbArc
 50
-163.652004039
 51
-121.487635969
  0
LINE
  5
B5D
330
A02
100
AcDbEntity
  8
Part__Feature
100
AcDbLine
 10
397.696182259
 20
12.940559957
 30
-458.520703574
 11
397.696182259
 21
12.940559957
 31
-455.520703574
  0
ARC
  5
B5E
330
A02
100
AcDbEntity
  8
Part__Feature
100
AcDbCircle
 10
398.740811377
 20
14.646065749
 30
-455.520703574
 40
2.000000000
100
AcDbArc
 50
-163.652004039
 51
-121.487635969
  0
LINE
  5
B5F
330
A02
100
AcDbEntity
  8
Part__Feature
100
AcDbLine
 10
396.821671688
 20
14.083124495
 30
-455.520703574
 11
396.821671688
 21
14.083124495
 31
-458.520703574
  0
LINE
  5
B60
330
A02
100
AcDbEntity
  8
Part__Feature
100
AcDbLine
 10
382.463771989
 20
29.323662496
 30
-458.520703574
 11
382.463771989
 21
29.323662496
 31
-455.520703574
  0
LINE
  5
B61
330
A02
100
AcDbEntity
  8
Part__Feature
100
AcDbLine
 10
390.853557150
 20
29.323662890
 30
-458.520703574
 11
382.463771989
 21
29.323662496
 31
-458.520703574
  0
LINE
  5
B62
330
A02
100
AcDbEntity
  8
Part__Feature
100
AcDbLine
 10
390.853557150
 20
29.323662890
 30
-455.520703574
 11
390.853557150
 21
29.323662890
 31
-458.520703574
  0
LINE
  5
B63
330
A02
100
AcDbEntity
  8
Part__Feature
100
AcDbLine
 10
382.463771989
 20
29.323662496
 30
-455.520703574
 11
390.853557150
 21
29.323662890
 31
-455.520703574
  0
LINE
  5
B64
330
A02
100
AcDbEntity
  8
Part__Feature
100
AcDbLine
 10
381.140897719
 20
28.823663635
 30
-455.520703574
 11
381.140897719
 21
28.823663635
 31
-458.520703574
  0
ARC
  5
B65
330
A02
100
AcDbEntity
  8
Part__Feature
100
AcDbCircle
 10
379.818023355
 20
30.323664774
 30
-455.520703574
 40
2.000000000
100
AcDbArc
 50
-89.999995967
 51
-48.590427215
  0
LINE
  5
B66
330
A02
100
AcDbEntity
  8
Part__Feature
100
AcDbLine
 10
379.818023495
 20
28.323664774
 30
-455.520703574
 11
379.818023495
 21
28.323664774
 31
-458.520703574
  0
ARC
  5
B67
330
A02
100
AcDbEntity
  8
Part__Feature
100
AcDbCircle
 10
379.818023355
 20
30.323664774
 30
-458.520703574
 40
2.000000000
100
AcDbArc
 50
-89.999995967
 51
-48.590427215
  0
LINE
  5
B68
330
A02
100
AcDbEntity
  8
Part__Feature
100
AcDbLine
 10
382.463771989
 20
29.323662496
 30
-458.520703574
 11
382.463771989
 21
29.323662496
 31
-455.520703574
  0
ARC
  5
B69
330
A02
100
AcDbEntity
  8
Part__Feature
100
AcDbCircle
 10
382.463772083
 20
27.323662496
 30
-458.520703574
 40
2.000000000
100
AcDbArc
 50
90.000002689
 51
131.409572785
  0
LINE
  5
B6A
330
A02
100
AcDbEntity
  8
Part__Feature
100
AcDbLine
 10
381.140897719
 20
28.823663635
 30
-455.520703574
 11
381.140897719
 21
28.823663635
 31
-458.520703574
  0
ARC
  5
B6B
330
A02
100
AcDbEntity
  8
Part__Feature
100
AcDbCircle
 10
382.463772083
 20
27.323662496
 30
-455.520703574
 40
2.000000000
100
AcDbArc
 50
90.000002689
 51
131.409572785
  0
LINE
  5
B6C
330
A02
100
AcDbEntity
  8
Part__Feature
100
AcDbLine
 10
72.138481211
 20
29.323654600
 30
-455.520703574
 11
80.550471676
 21
29.323654995
 31
-455.520703574
  0
LINE
  5
B6D
330
A02
100
AcDbEntity
  8
Part__Feature
100
AcDbLine
 10
72.138481211
 20
29.323654600
 30
-458.520703574
 11
72.138481211
 21
29.323654600
 31
-455.520703574
  0
LINE
  5
B6E
330
A02
100
AcDbEntity
  8
Part__Feature
100
AcDbLine
 10
80.550471676
 20
29.323654995
 30
-458.520703574
 11
72.138481211
 21
29.323654600
 31
-458.520703574
  0
LINE
  5
B6F
330
A02
100
AcDbEntity
  8
Part__Feature
100
AcDbLine
 10
80.550471676
 20
29.323654995
 30
-458.520703574
 11
80.550471676
 21
29.323654995
 31
-455.520703574
  0
LINE
  5
B70
330
A02
100
AcDbEntity
  8
Part__Feature
100
AcDbLine
 10
72.138481211
 20
29.323654600
 30
-458.520703574
 11
72.138481211
 21
29.323654600
 31
-455.520703574
  0
ARC
  5
B71
330
A02
100
AcDbEntity
  8
Part__Feature
100
AcDbCircle
 10
72.138481304
 20
27.323654585
 30
-458.520703574
 40
2.000000015
100
AcDbArc
 50
90.000002689
 51
150.945398589
  0
LINE
  5
B72
330
A02
100
AcDbEntity
  8
Part__Feature
100
AcDbLine
 10
70.390166694
 20
28.294940373
 30
-458.520703574
 11
70.390166694
 21
28.294940373
 31
-455.520703574
  0
ARC
  5
B73
330
A02
100
AcDbEntity
  8
Part__Feature
100
AcDbCircle
 10
72.138481304
 20
27.323654585
 30
-455.520703574
 40
2.000000015
100
AcDbArc
 50
90.000002689
 51
150.945398589
  0
LINE
  5
B74
330
A02
100
AcDbEntity
  8
Part__Feature
100
AcDbLine
 10
60.362172862
 20
10.244549480
 30
-458.520703574
 11
60.362172862
 21
10.244549480
 31
-455.520703574
  0
LINE
  5
B75
330
A02
100
AcDbEntity
  8
Part__Feature
100
AcDbLine
 10
70.390166621
 20
28.294940413
 30
-458.520703574
 11
60.362172874
 21
10.244549474
 31
-458.520703574
  0
LINE
  5
B76
330
A02
100
AcDbEntity
  8
Part__Feature
100
AcDbLine
 10
70.390166694
 20
28.294940373
 30
-458.520703574
 11
70.390166694
 21
28.294940373
 31
-455.520703574
  0
LINE
  5
B77
330
A02
100
AcDbEntity
  8
Part__Feature
100
AcDbLine
 10
60.362172874
 20
10.244549474
 30
-455.520703574
 11
70.390166621
 21
28.294940413
 31
-455.520703574
  0
ARC
  5
B78
330
A02
100
AcDbEntity
  8
Part__Feature
100
AcDbCircle
 10
80.550471770
 20
27.323654980
 30
-458.520703574
 40
2.000000015
100
AcDbArc
 50
48.590137615
 51
90.000002689
  0
LINE
  5
B79
330
A02
100
AcDbEntity
  8
Part__Feature
100
AcDbLine
 10
80.550471676
 20
29.323654995
 30
-458.520703574
 11
80.550471676
 21
29.323654995
 31
-455.520703574
  0
ARC
  5
B7A
330
A02
100
AcDbEntity
  8
Part__Feature
100
AcDbCircle
 10
80.550471770
 20
27.323654980
 30
-455.520703574
 40
2.000000015
100
AcDbArc
 50
48.590137615
 51
90.000002689
  0
LINE
  5
B7B
330
A02
100
AcDbEntity
  8
Part__Feature
100
AcDbLine
 10
81.873353725
 20
28.823649443
 30
-455.520703574
 11
81.873353725
 21
28.823649443
 31
-458.520703574
  0
ENDSEC
  0
SECTION
  2
OBJECTS
  0
DICTIONARY
  5
F000
330
0
100
AcDbDictionary
  3
ACAD_GROUP
350
F001
  0
DICTIONARY
  5
F001
330
F000
100
AcDbDictionary
  0
ENDSEC
  0
EOF